STARTFONT 2.1
FONT -FontForge-STAR 4-Book-R-Normal--75-720-75-75-P-359-ISO10646-1
SIZE 72 75 75
FONTBOUNDINGBOX 38 76 -1 -18
COMMENT "Generated by fontforge, http://fontforge.sourceforge.net"
COMMENT "Typeface (c) (your company). 2006. All Rights Reserved"
STARTPROPERTIES 40
FOUNDRY "FontForge"
FAMILY_NAME "STAR 4"
WEIGHT_NAME "Book"
SLANT "R"
SETWIDTH_NAME "Normal"
ADD_STYLE_NAME ""
PIXEL_SIZE 75
POINT_SIZE 720
RESOLUTION_X 75
RESOLUTION_Y 75
SPACING "P"
AVERAGE_WIDTH 359
CHARSET_REGISTRY "ISO10646"
CHARSET_ENCODING "1"
FONTNAME_REGISTRY ""
CHARSET_COLLECTIONS "ASCII ISOLatin1Encoding ISO8859-2 ISO8859-5 ISO8859-7 ISO8859-9 ISO8859-4 Symbol ISO10646-1"
FONT_NAME "STAR4"
FACE_NAME "STAR 4"
COPYRIGHT "Typeface (c) (your company). 2006. All Rights Reserved"
FONT_VERSION "1.00 August 4, 2006, initial release"
FONT_ASCENT 60
FONT_DESCENT 15
UNDERLINE_POSITION -11
UNDERLINE_THICKNESS 6
X_HEIGHT 39
CAP_HEIGHT 51
RAW_ASCENT 799
RAW_DESCENT 200
NORM_SPACE 36
RELATIVE_WEIGHT 40
RELATIVE_SETWIDTH 50
SUPERSCRIPT_X 0
SUPERSCRIPT_Y 35
SUPERSCRIPT_SIZE 48
SUBSCRIPT_X 0
SUBSCRIPT_Y 10
SUBSCRIPT_SIZE 48
FIGURE_WIDTH 36
AVG_LOWERCASE_WIDTH 360
AVG_UPPERCASE_WIDTH 360
ENDPROPERTIES
CHARS 660
STARTCHAR space
ENCODING 32
SWIDTH 475 0
DWIDTH 36 0
BBX 1 1 0 0
BITMAP
00
ENDCHAR
STARTCHAR exclam
ENCODING 33
SWIDTH 475 0
DWIDTH 36 0
BBX 9 52 13 0
BITMAP
7F80
7F80
7F80
7F80
7F80
7F80
7F80
7F80
7F80
7F80
7F80
7F80
7F80
7F80
7F80
7F00
7F00
7F00
7F00
3F00
3F00
3F00
3F00
3F00
3F00
3F00
3F00
3F00
3E00
3E00
3E00
1E00
1E00
1E00
1E00
1E00
0000
0000
0000
0000
0000
FF80
FF80
FF80
FF80
FF80
FF80
FF80
FF80
FF80
FF80
FF80
ENDCHAR
STARTCHAR quotedbl
ENCODING 34
SWIDTH 475 0
DWIDTH 36 0
BBX 18 18 9 36
BITMAP
FC0FC0
FC0FC0
FC0FC0
FC0FC0
FC0FC0
FC0FC0
FC0FC0
FC0FC0
FC0FC0
FC0FC0
FC0FC0
FC0FC0
FC0FC0
FC0FC0
FC0FC0
FC0FC0
FC0FC0
FC0FC0
ENDCHAR
STARTCHAR numbersign
ENCODING 35
SWIDTH 475 0
DWIDTH 36 0
BBX 29 53 3 0
BITMAP
001F03E0
003F03E0
003F03E0
003E07E0
003E07E0
003E07C0
003E07C0
007E07C0
007E07C0
007C0FC0
007C0FC0
007C0F80
007C0F80
00FC0F80
00F81F80
00F81F80
3FFFFFF8
3FFFFFF8
3FFFFFF8
3FFFFFF8
3FFFFFF8
3FFFFFF8
01F03E00
01F03E00
01F03E00
03F03E00
03F03E00
03E07E00
03E07C00
03E07C00
03E07C00
FFFFFFE0
FFFFFFE0
FFFFFFE0
FFFFFFE0
FFFFFFE0
FFFFFFE0
0FC0F800
0FC0F800
0F81F800
0F81F000
0F81F000
0F81F000
1F81F000
1F01F000
1F03F000
1F03E000
1F03E000
1F03E000
3F03E000
3E03E000
3E07E000
3E07C000
ENDCHAR
STARTCHAR dollar
ENCODING 36
SWIDTH 475 0
DWIDTH 36 0
BBX 29 59 3 -6
BITMAP
001F8000
007FE000
00FFF800
01FFFC00
01FFFE00
03FFFF00
07FFFF80
07EFFF80
0FCF3FC0
1F8F1FC0
3F0F0FE0
7F0F0FE0
7E0F07F0
7E0F0000
7E0F0000
7E0F0000
7E0F0000
7F0F0000
7F0F0000
3F8F0000
3FCF0000
3FFF0000
1FFF0000
0FFF8000
07FFF000
03FFFC00
00FFFF00
003FFF80
000FFFE0
000FFFF0
000F3FF0
000F0FF8
000F03F8
000F01F8
000F01F8
000F01F8
000F00F8
FC0F01F8
FE0F01F8
FE0F01F8
FE0F01F8
7E0F03F8
7F0F03F0
7F0F07F0
3F8F07F0
3FCF0FE0
1FEF3FE0
1FFFFFC0
0FFFFF80
07FFFF00
03FFFE00
01FFFC00
00FFF000
000F0000
000F0000
000F0000
000F0000
000F0000
000F0000
ENDCHAR
STARTCHAR percent
ENCODING 37
SWIDTH 475 0
DWIDTH 36 0
BBX 35 52 0 0
BITMAP
01FF800000
07FFC00000
0FFFF00000
1FFFF80000
3FFFF80000
3F01FC0000
7E007E0000
7C003E0000
7C003E0000
F8003F0000
F8001F0000
F8001F0000
F8001F0000
FC003E0000
7C003E0000
7E007E0000
7F00FC0000
3F81FC0000
1FFFF800C0
0FFFF007C0
07FFE01FE0
03FFC0FFE0
007E03FF00
00001FFC00
00007FE000
0003FF8000
000FFC0000
007FE00000
01FF800000
0FFC1FF000
3FF07FFC00
1F80FFFE00
1E01FFFF00
1003FFFF80
0007F01FC0
0007E00FC0
0007C007E0
000F8003E0
000F8003E0
000F8003E0
000F8003E0
000F8003E0
000F8003E0
000FC003E0
0007C007E0
0007E00FC0
0003F83FC0
0003FFFF80
0001FFFF00
0000FFFE00
00003FF800
00000FE000
ENDCHAR
STARTCHAR ampersand
ENCODING 38
SWIDTH 475 0
DWIDTH 36 0
BBX 28 54 4 -1
BITMAP
003E0000
00FF0000
01FF8000
03FFC000
07FFE000
07FFE000
07C3E000
0FC3F000
0F81F000
0F81F000
0F81F000
0F81F000
0F81F000
0F81F000
0F81F000
0FC3E000
07C3E000
07C7E000
07E7C000
03FFC000
03FF8000
03FF8000
01FF0000
01FE0000
03FC0000
07FE0000
07FE0000
0FFF0000
1FFF0000
3F9F8000
3F1F8000
7E0FCFC0
7C0FCF80
7C07EF80
FC07FF80
F803FF80
F803FF80
F801FF00
F801FF00
F800FF00
F8007E00
FC007E00
FC007F00
FC007F00
FC00FF80
7E01FF80
7E01FFC0
7F07F7E0
3FFFF7E0
1FFFE3F0
1FFFC000
0FFF8000
07FF0000
00F80000
ENDCHAR
STARTCHAR quotesingle
ENCODING 39
SWIDTH 475 0
DWIDTH 36 0
BBX 6 18 15 36
BITMAP
FC
FC
FC
FC
FC
FC
FC
FC
FC
FC
FC
FC
FC
FC
FC
FC
FC
FC
ENDCHAR
STARTCHAR parenleft
ENCODING 40
SWIDTH 475 0
DWIDTH 36 0
BBX 13 59 11 -6
BITMAP
03F0
07E0
07E0
0FE0
0FC0
0FC0
1FC0
1FC0
1F80
1F80
3F80
3F80
3F80
3F80
3F80
7F00
7F00
7F00
7F00
7F00
7F00
7F00
7F00
FF00
FF00
FF00
FF00
FF00
FF00
FF00
FF00
FF00
FF00
FF00
FF00
FF00
FF00
7F00
7F00
7F00
7F00
7F00
7F00
7F00
3F80
3F80
3F80
3F80
1F80
1FC0
1FC0
0FC0
0FE0
0FE0
07E0
07F0
03F0
03F8
01F8
ENDCHAR
STARTCHAR parenright
ENCODING 41
SWIDTH 475 0
DWIDTH 36 0
BBX 13 59 11 -6
BITMAP
3F00
3F00
3F80
1F80
1F80
1FC0
0FC0
0FC0
0FE0
0FE0
0FE0
07E0
07F0
07F0
07F0
07F0
07F0
07F0
03F8
03F8
03F8
03F8
03F8
03F8
03F8
03F8
03F8
03F8
03F8
03F8
03F8
03F8
03F8
03F8
03F8
03F8
03F8
03F8
03F8
03F8
03F8
07F8
07F0
07F0
07F0
07F0
07F0
0FE0
0FE0
0FE0
1FC0
1FC0
1FC0
3F80
3F80
3F00
7F00
7F00
FE00
ENDCHAR
STARTCHAR asterisk
ENCODING 42
SWIDTH 475 0
DWIDTH 36 0
BBX 30 28 3 24
BITMAP
000F8000
000F8000
000F8000
000F8000
000F8000
000F8000
000F8000
700F8030
7FFFFFF8
7FFFFFF8
7FFFFFF8
FFFFFFF8
FFFFFFFC
03FFFF00
00FFF800
00FFF800
007FF800
007FF800
00FFF800
01FFFC00
01FFFE00
03F87F00
07F07F80
0FF03F80
0FE01FC0
0FC01F80
03C00F00
01800600
ENDCHAR
STARTCHAR plus
ENCODING 43
SWIDTH 475 0
DWIDTH 36 0
BBX 29 38 3 8
BITMAP
000FC000
000FC000
000FC000
000FC000
000FC000
000FC000
000FC000
000FC000
000FC000
000FC000
000FC000
000FC000
000FC000
000FC000
000FC000
000FC000
FFFFFFF8
FFFFFFF8
FFFFFFF8
FFFFFFF8
FFFFFFF8
FFFFFFF8
FFFFFFF8
000FC000
000FC000
000FC000
000FC000
000FC000
000FC000
000FC000
000FC000
000FC000
000FC000
000FC000
000FC000
000FC000
000FC000
000FC000
ENDCHAR
STARTCHAR comma
ENCODING 44
SWIDTH 475 0
DWIDTH 36 0
BBX 9 23 13 -9
BITMAP
FF80
FF80
FF80
FF80
FF80
FF80
FF80
FF80
FF80
FF80
FF80
FF80
0F80
0F80
0F80
0F80
1F80
7F80
7F80
7F80
7F00
7E00
7800
ENDCHAR
STARTCHAR hyphen
ENCODING 45
SWIDTH 475 0
DWIDTH 36 0
BBX 15 6 10 17
BITMAP
FFFE
FFFE
FFFE
FFFE
FFFE
FFFE
ENDCHAR
STARTCHAR period
ENCODING 46
SWIDTH 475 0
DWIDTH 36 0
BBX 9 11 13 0
BITMAP
FF80
FF80
FF80
FF80
FF80
FF80
FF80
FF80
FF80
FF80
FF80
ENDCHAR
STARTCHAR slash
ENCODING 47
SWIDTH 475 0
DWIDTH 36 0
BBX 22 60 7 -7
BITMAP
0001FC
0001F8
0001F8
0001F8
0003F8
0003F0
0003F0
0007F0
0007F0
0007E0
0007E0
000FE0
000FE0
000FC0
000FC0
001FC0
001F80
001F80
001F80
003F80
003F00
003F00
003F00
007F00
007E00
007E00
00FE00
00FE00
00FC00
00FC00
01FC00
01FC00
01F800
01F800
03F800
03F000
03F000
03F000
07F000
07E000
07E000
07E000
0FE000
0FC000
0FC000
1FC000
1FC000
1F8000
1F8000
3F8000
3F0000
3F0000
3F0000
7F0000
7E0000
7E0000
7E0000
FE0000
FC0000
FC0000
ENDCHAR
STARTCHAR zero
ENCODING 48
SWIDTH 475 0
DWIDTH 36 0
BBX 30 54 3 -1
BITMAP
000FC000
007FF800
00FFFC00
01FFFE00
03FFFF00
07FFFF80
07F03FC0
0FE01FC0
0FE00FE0
1FC00FE0
1FC007F0
3F8007F0
3F8007F0
3F8003F8
7F0003F8
7F0003F8
7F0001F8
7F0001FC
7E0001FC
FE0001FC
FE0001FC
FE0001FC
FE0000FC
FE0000FC
FE0000FC
FE0000FC
FE0000FC
FE0000FC
FE0000FC
FE0000FC
FE0000FC
FE0000FC
FE0001FC
FE0001FC
7E0001FC
7E0001FC
7F0001FC
7F0001F8
7F0003F8
7F0003F8
3F8003F8
3F8007F0
3F8007F0
1FC007F0
1FC00FE0
0FE00FE0
0FE01FC0
07F83FC0
07FFFF80
03FFFF00
01FFFE00
00FFFC00
007FF800
0007C000
ENDCHAR
STARTCHAR one
ENCODING 49
SWIDTH 475 0
DWIDTH 36 0
BBX 18 52 9 0
BITMAP
000FC0
001FC0
001FC0
001FC0
003FC0
003FC0
007FC0
00FFC0
03FFC0
3FFFC0
FFFFC0
FFFFC0
FFFFC0
FFFFC0
FFFFC0
001FC0
001FC0
001FC0
001FC0
001FC0
001FC0
001FC0
001FC0
001FC0
001FC0
001FC0
001FC0
001FC0
001FC0
001FC0
001FC0
001FC0
001FC0
001FC0
001FC0
001FC0
001FC0
001FC0
001FC0
001FC0
001FC0
001FC0
001FC0
001FC0
001FC0
001FC0
001FC0
001FC0
001FC0
001FC0
001FC0
001FC0
ENDCHAR
STARTCHAR two
ENCODING 50
SWIDTH 475 0
DWIDTH 36 0
BBX 28 52 4 0
BITMAP
007FF800
00FFFC00
01FFFC00
03FFFE00
07FFFF00
0FFFFF80
1FE03FC0
1FC01FE0
1F800FE0
3F800FF0
3F8007F0
3F0007F0
7F0007F0
7F0007F0
7E0007F0
7E0007F0
FE0007F0
000007F0
000007F0
000007F0
000007E0
00000FE0
00000FE0
00001FC0
00003FC0
00007F80
0000FF80
0003FF00
0007FE00
001FFC00
003FF800
007FE000
01FFC000
03FF8000
07FE0000
0FFC0000
1FF00000
1FE00000
3FC00000
3F800000
7F000000
7F000000
7F000000
FE000000
FE000000
FF000000
FFFFFFF0
FFFFFFF0
FFFFFFF0
FFFFFFF0
FFFFFFF0
FFFFFFF0
ENDCHAR
STARTCHAR three
ENCODING 51
SWIDTH 475 0
DWIDTH 36 0
BBX 30 54 3 -1
BITMAP
003FF000
00FFFC00
03FFFE00
07FFFF00
0FFFFF80
0FFFFFC0
1FF01FE0
1FE00FE0
3FC007F0
3F8007F0
3F8003F0
7F0003F8
7F0003F8
7F0003F8
7F0003F8
7E0003F8
7E0003F8
000003F0
000007F0
000007F0
00000FE0
00003FE0
000FFFC0
000FFF80
000FFF00
000FFF80
000FFFE0
000FFFE0
00007FF0
00000FF8
000003F8
000003FC
000001FC
000001FC
000000FC
000000FC
FE0000FC
FE0000FC
FE0000FC
FE0000FC
FE0001FC
FE0001FC
FE0001FC
FF0001F8
7F0003F8
7F8007F8
3FE00FF0
1FF83FF0
1FFFFFE0
0FFFFFC0
07FFFF80
03FFFF00
00FFFC00
001FE000
ENDCHAR
STARTCHAR four
ENCODING 52
SWIDTH 475 0
DWIDTH 36 0
BBX 30 52 2 0
BITMAP
00003F80
00003F80
00007F80
00007F80
0000FF80
0000FF80
0001FF80
0001FF80
0003FF80
0007FF80
0007FF80
000FFF80
000FFF80
001FFF80
001FFF80
003FFF80
007F1F80
007F1F80
00FE1F80
00FE1F80
01FC1F80
01FC1F80
03F81F80
07F01F80
07F01F80
0FE01F80
0FE01F80
1FC01F80
1FC01F80
3F801F80
3F801F80
7F001F80
FF801F80
FFFFFFFC
FFFFFFFC
FFFFFFFC
FFFFFFFC
FFFFFFFC
FFFFFFFC
00001F80
00001F80
00001F80
00001F80
00001F80
00001F80
00001F80
00001F80
00001F80
00001F80
00001F80
00001F80
00001F80
ENDCHAR
STARTCHAR five
ENCODING 53
SWIDTH 475 0
DWIDTH 36 0
BBX 30 54 3 -1
BITMAP
0FFFFFF0
0FFFFFF0
0FFFFFF0
0FFFFFF0
0FFFFFF0
1FFFFFF0
1FFFFFF0
1FC00000
1FC00000
1FC00000
1FC00000
3FC00000
3FC00000
3F800000
3F800000
3F800000
3F803800
7F87FC00
7F1FFC00
7F7FFE00
7FFFFF80
7FFFFFC0
7FFFFFE0
FFF01FE0
FFE00FF0
FF8007F0
FF0007F8
000003F8
000003F8
000001F8
000001FC
000001FC
000001FC
000001FC
000001FC
000001FC
000001FC
000001FC
7F0001FC
7F0001FC
7F0003F8
7F0003F8
7F8003F8
3F8007F8
3FC00FF0
3FE01FF0
1FF03FE0
0FFFFFC0
0FFFFFC0
07FFFF80
03FFFF00
01FFFE00
007FF800
000FC000
ENDCHAR
STARTCHAR six
ENCODING 54
SWIDTH 475 0
DWIDTH 36 0
BBX 31 54 2 -1
BITMAP
000FF800
003FFC00
007FFE00
00FFFF00
01FFFF80
03FFFFC0
07FFFFE0
0FF007E0
0FE007F0
1FC003F0
1FC001F8
1F8001F8
3F8001F8
3F0001F8
3F000000
3F000000
7F000000
7E000000
7E000000
7E03F800
7E1FFE00
7E3FFF00
7EFFFF80
7FFFFFC0
7FFFFFE0
FFFE3FF0
FFE007F8
FFC003FC
FF8001FC
FF8001FC
FF8001FE
FF0000FE
FF0000FE
7F0000FE
7F0000FE
7F0000FE
7F0000FE
7F0000FE
7F0000FE
7F0000FE
3F0000FE
3F8000FE
3F8001FC
1F8001FC
1FC003FC
1FE007F8
0FF80FF8
0FFFFFF0
07FFFFE0
03FFFFE0
01FFFFC0
00FFFF00
003FFE00
0007F000
ENDCHAR
STARTCHAR seven
ENCODING 55
SWIDTH 475 0
DWIDTH 36 0
BBX 31 52 2 0
BITMAP
FFFFFFFE
FFFFFFFE
FFFFFFFE
FFFFFFFE
FFFFFFFE
FFFFFFFE
FFFFFFFE
000001FC
000003FC
000003F8
000007F0
000007F0
00000FE0
00000FC0
00001FC0
00003F80
00003F80
00007F00
00007F00
0000FE00
0000FE00
0000FE00
0001FC00
0001FC00
0003F800
0003F800
0007F800
0007F000
0007F000
000FF000
000FE000
000FE000
001FE000
001FE000
001FC000
003FC000
003FC000
003FC000
003F8000
007F8000
007F8000
007F8000
007F8000
007F0000
00FF0000
00FF0000
00FF0000
00FF0000
00FF0000
00FF0000
01FE0000
01FE0000
ENDCHAR
STARTCHAR eight
ENCODING 56
SWIDTH 475 0
DWIDTH 36 0
BBX 29 54 3 -1
BITMAP
001FC000
003FF000
00FFF800
01FFFE00
03FFFF00
07FFFF80
0FF07FC0
1FC01FC0
1F800FE0
3F8007E0
3F8007E0
3F0007F0
3F0007F0
3F0007F0
3F0007F0
3F0007F0
3F0007F0
3F8007E0
3F8007E0
1F800FE0
1FC01FC0
0FF87F80
07FFFF00
03FFFE00
01FFFE00
03FFFF00
07FFFF80
0FFFFFC0
1FE03FE0
3FC00FE0
3F8007F0
7F0007F0
7F0003F8
7E0003F8
FE0003F8
FE0001F8
FE0001F8
FE0001F8
FE0001F8
FE0001F8
7E0003F8
7E0003F8
7F0003F8
7F0007F0
3F8007F0
3FC00FE0
1FE01FE0
1FFFFFC0
0FFFFF80
07FFFF80
03FFFF00
01FFFE00
00FFFC00
003FF000
ENDCHAR
STARTCHAR nine
ENCODING 57
SWIDTH 475 0
DWIDTH 36 0
BBX 31 54 2 -1
BITMAP
003FF000
00FFFC00
01FFFE00
07FFFF00
0FFFFF00
0FFFFF80
1FFFFFC0
3FE01FC0
3FC00FE0
7F8007F0
7F0003F0
7F0003F0
7E0003F8
FE0001F8
FE0001F8
FE0001FC
FE0001FC
FE0001FC
FE0001FC
FE0001FC
FE0001FC
7E0003FE
7F0003FE
7F0003FE
7F0007FE
3F8007FE
3FC00FFE
3FE01FFE
1FFFFFFE
0FFFFFFE
07FFFFFC
03FFFCFC
01FFF8FC
007FE0FC
000600FC
000001FC
000001FC
000001F8
000001F8
3F0003F8
3F0003F8
3F8003F0
3F8007F0
1FC007F0
1FC00FE0
1FC01FE0
0FE03FC0
0FFFFFC0
07FFFF80
07FFFF00
03FFFE00
01FFFC00
00FFF000
001F8000
ENDCHAR
STARTCHAR colon
ENCODING 58
SWIDTH 475 0
DWIDTH 36 0
BBX 9 40 13 0
BITMAP
FF80
FF80
FF80
FF80
FF80
FF80
FF80
FF80
FF80
FF80
FF80
0000
0000
0000
0000
0000
0000
0000
0000
0000
0000
0000
0000
0000
0000
0000
0000
0000
0000
FF80
FF80
FF80
FF80
FF80
FF80
FF80
FF80
FF80
FF80
FF80
ENDCHAR
STARTCHAR semicolon
ENCODING 59
SWIDTH 475 0
DWIDTH 36 0
BBX 9 49 13 -9
BITMAP
FF80
FF80
FF80
FF80
FF80
FF80
FF80
FF80
FF80
FF80
FF80
0000
0000
0000
0000
0000
0000
0000
0000
0000
0000
0000
0000
0000
0000
0000
FF80
FF80
FF80
FF80
FF80
FF80
FF80
FF80
FF80
FF80
FF80
FF80
0F80
0F80
0F80
0F80
1F80
7F80
7F80
7F80
7F00
7E00
7800
ENDCHAR
STARTCHAR less
ENCODING 60
SWIDTH 475 0
DWIDTH 36 0
BBX 28 37 4 8
BITMAP
00000010
00000070
000001F0
000007F0
00001FF0
00003FF0
0000FFF0
0003FFC0
000FFF00
003FFC00
007FF800
01FFE000
07FF8000
1FFE0000
7FF80000
7FE00000
FFC00000
FF000000
FE000000
FF800000
FFE00000
7FF00000
3FFC0000
0FFF0000
03FFC000
00FFF000
003FFC00
001FFE00
0007FF80
0001FFE0
00007FF0
00003FF0
00000FF0
000003F0
000000F0
00000030
00000010
ENDCHAR
STARTCHAR equal
ENCODING 61
SWIDTH 475 0
DWIDTH 36 0
BBX 29 20 3 17
BITMAP
FFFFFFF8
FFFFFFF8
FFFFFFF8
FFFFFFF8
FFFFFFF8
FFFFFFF8
00000000
00000000
00000000
00000000
00000000
00000000
00000000
00000000
FFFFFFF8
FFFFFFF8
FFFFFFF8
FFFFFFF8
FFFFFFF8
FFFFFFF8
ENDCHAR
STARTCHAR greater
ENCODING 62
SWIDTH 475 0
DWIDTH 36 0
BBX 28 36 4 9
BITMAP
80000000
E0000000
F8000000
FC000000
FF000000
FFC00000
FFF00000
3FFC0000
1FFE0000
07FF8000
01FFE000
007FF800
001FFE00
000FFF00
0003FFC0
0000FFE0
00003FE0
00000FF0
000007F0
00001FE0
00007FE0
0001FFE0
0007FF80
001FFE00
003FFC00
00FFF000
03FFC000
0FFF0000
3FFC0000
7FF80000
FFE00000
FF800000
FE000000
FC000000
F0000000
C0000000
ENDCHAR
STARTCHAR question
ENCODING 63
SWIDTH 475 0
DWIDTH 36 0
BBX 29 53 3 0
BITMAP
007FF800
01FFFE00
07FFFF80
0FFFFFC0
1FFFFFE0
1FFFFFF0
3FF03FF0
3FC00FF8
7F8007F8
7F0003F8
7F0003F8
FE0003F8
FE0003F8
FE0003F8
FE0003F8
FE0003F8
000003F8
000007F8
000007F0
00000FF0
00001FE0
00003FE0
00007FC0
0000FF80
0001FF00
0001FE00
0003FC00
0007F800
0007F000
000FE000
000FE000
001FC000
001FC000
001FC000
001FC000
001FC000
001FC000
00000000
00000000
00000000
00000000
00000000
003FE000
003FE000
003FE000
003FE000
003FE000
003FE000
003FE000
003FE000
003FE000
003FE000
003FE000
ENDCHAR
STARTCHAR at
ENCODING 64
SWIDTH 475 0
DWIDTH 36 0
BBX 31 54 2 -1
BITMAP
001FF800
007FFC00
01FFFF00
03FFFF80
07FFFFC0
07FEFFC0
0FE00FE0
0FC007E0
1F8003F0
1F0003F0
3F0001F0
3F0001F0
3E0001F0
3E0001F8
7E0001F8
7E0007F8
7C00FFF8
7C03FFF8
7C0FFFF8
7C1FFFF8
FC1FFDF8
FC3FE1F8
FC3F01F8
FC7E01F8
FC7C01F8
FC7C01F8
FC7C01F8
FCFC01F8
FCFC01F8
FCFC01F8
FCFC01F8
FC7C03F8
FC7C03F8
FC7C07F8
FC7E0FFE
FC7FFF7E
7C3FFF7E
7C3FFE7E
7C1FFC3E
7E0FF81E
7E07E000
7E000000
3E000000
3F000000
3F000000
1F800000
1FC00000
0FE00800
0FFFF800
07FFF800
03FFF800
01FFF800
00FFF800
003FF000
ENDCHAR
STARTCHAR A
ENCODING 65
SWIDTH 475 0
DWIDTH 36 0
BBX 30 52 3 0
BITMAP
000FC000
001FE000
001FE000
001FE000
003FE000
003FE000
003FF000
003FF000
003FF000
003FF000
003FF000
007FF000
007FF000
007FF800
00FFFC00
01FFFE00
01FFFE00
01FFFE00
03F8FE00
03F07E00
03F07F00
03F03F00
03F03F00
07F03F00
07F03F00
07E03F80
07E03F80
07E03F80
0FE03F80
0FE03F80
0FE01FC0
0FE03FC0
0FFCFFC0
1FFFFFC0
1FFFFFC0
1FFFFFE0
1FC01FE0
1FC00FE0
3F800FE0
3F800FE0
3F800FF0
3F8007F0
3F8007F0
7F0007F0
7F0007F0
7F0007F8
7F0003F8
7F0003F8
7F0003F8
FF0003F8
FE0003F8
FE0003FC
ENDCHAR
STARTCHAR B
ENCODING 66
SWIDTH 475 0
DWIDTH 36 0
BBX 30 52 3 0
BITMAP
FFFFE000
FFFFF800
FFFFFC00
FFFFFE00
FFFFFF00
FFFFFF80
FE007F80
FE001FC0
FE000FE0
FE000FE0
FE0007E0
FE0007F0
FE0007F0
FE0007F0
FE0007F0
FE0007F0
FE0007F0
FE0007E0
FE0007E0
FE000FE0
FE003FC0
FFFFFFC0
FFFFFF80
FFFFFF80
FFFFFF80
FFFFFFC0
FFFFFFE0
FE003FF0
FE000FF0
FE0007F0
FE0003F8
FE0003F8
FE0003F8
FE0003F8
FE0003F8
FE0003F8
FE0003FC
FE0003F8
FE0003F8
FE0003F8
FE0003F8
FE0007F8
FE0007F8
FE000FF0
FE001FF0
FE003FF0
FFFFFFE0
FFFFFFC0
FFFFFFC0
FFFFFF80
FFFFFF00
FFFFFC00
ENDCHAR
STARTCHAR C
ENCODING 67
SWIDTH 475 0
DWIDTH 36 0
BBX 31 54 2 -1
BITMAP
0007C000
001FF800
007FFC00
00FFFE00
01FFFF00
03FFFF80
03FC7FC0
07F81FC0
07F00FE0
0FE00FF0
0FE007F0
1FC003F0
1FC003F8
3FC003F8
3F8003FC
3F800000
7F000000
7F000000
7F000000
7F000000
FE000000
FE000000
FE000000
FE000000
FE000000
FE000000
FE000000
FE000000
FE000000
FE000000
FE000000
FE000000
FE000000
7E000000
7F0000FE
7F0000FE
7F0001FC
7F0001FC
3F8001FC
3F8003FC
3FC003F8
1FC003F8
1FC007F0
0FE007F0
0FF00FF0
07F01FE0
07F81FC0
03FC7FC0
01FFFF80
01FFFF00
00FFFE00
007FFC00
001FF800
0007C000
ENDCHAR
STARTCHAR D
ENCODING 68
SWIDTH 475 0
DWIDTH 36 0
BBX 30 52 3 0
BITMAP
FFFFE000
FFFFF800
FFFFFC00
FFFFFE00
FFFFFF00
FFFFFF80
FE007FC0
FE003FE0
FE001FE0
FE000FF0
FE000FF0
FE0007F0
FE0007F8
FE0003F8
FE0003F8
FE0003F8
FE0003FC
FE0003FC
FE0001FC
FE0001FC
FE0001FC
FE0001FC
FE0001FC
FE0001FC
FE0001FC
FE0001FC
FE0001FC
FE0001FC
FE0001FC
FE0001FC
FE0001FC
FE0001FC
FE0001FC
FE0001FC
FE0003FC
FE0003F8
FE0003F8
FE0003F8
FE0007F8
FE0007F0
FE000FF0
FE000FF0
FE001FE0
FE001FE0
FE003FC0
FE007F80
FFFFFF80
FFFFFF00
FFFFFE00
FFFFFC00
FFFFF800
FFFFE000
ENDCHAR
STARTCHAR E
ENCODING 69
SWIDTH 475 0
DWIDTH 36 0
BBX 25 52 5 0
BITMAP
FFFFFF80
FFFFFF80
FFFFFF80
FFFFFF80
FFFFFF80
FFFFFF80
FE000000
FE000000
FE000000
FE000000
FE000000
FE000000
FE000000
FE000000
FE000000
FE000000
FE000000
FE000000
FE000000
FE000000
FE000000
FE000000
FFFFFE00
FFFFFE00
FFFFFE00
FFFFFE00
FFFFFE00
FFFFFE00
FE000000
FE000000
FE000000
FE000000
FE000000
FE000000
FE000000
FE000000
FE000000
FE000000
FE000000
FE000000
FE000000
FE000000
FE000000
FE000000
FE000000
FE000000
FFFFFF80
FFFFFF80
FFFFFF80
FFFFFF80
FFFFFF80
FFFFFF80
ENDCHAR
STARTCHAR F
ENCODING 70
SWIDTH 475 0
DWIDTH 36 0
BBX 27 52 4 0
BITMAP
FFFFFFE0
FFFFFFE0
FFFFFFE0
FFFFFFE0
FFFFFFE0
FFFFFFE0
FE000000
FE000000
FE000000
FE000000
FE000000
FE000000
FE000000
FE000000
FE000000
FE000000
FE000000
FE000000
FE000000
FE000000
FE000000
FE000000
FFFFFF00
FFFFFF00
FFFFFF00
FFFFFF00
FFFFFF00
FFFFFF00
FE000000
FE000000
FE000000
FE000000
FE000000
FE000000
FE000000
FE000000
FE000000
FE000000
FE000000
FE000000
FE000000
FE000000
FE000000
FE000000
FE000000
FE000000
FE000000
FE000000
FE000000
FE000000
FE000000
FE000000
ENDCHAR
STARTCHAR G
ENCODING 71
SWIDTH 475 0
DWIDTH 36 0
BBX 29 54 3 -1
BITMAP
0001C000
001FF000
007FF800
00FFFC00
01FFFE00
03FFFF00
07FFFF80
07F03F80
0FE03FC0
1FC01FC0
1FC00FE0
3F800FE0
3F8007F0
3F0007F0
7F0003F8
7F0003F8
7F0003F8
7E0001F8
FE000000
FE000000
FE000000
FE000000
FE000000
FE000000
FC000000
FC000000
FC00FFF8
FC00FFF8
FC00FFF8
FC00FFF8
FE00FFF8
FE00FFF8
FE00FFF8
FE0001F8
FE0001F8
FE0001F8
7E0001F8
7F0001F8
7F0001F8
7F0001F8
3F0003F8
3F8003F8
3F8003F8
1FC007F8
1FC007F8
0FE00FF8
0FF01FF8
07FFFFC0
07FFFF80
03FFFF00
01FFFE00
00FFFC00
007FF800
001FE000
ENDCHAR
STARTCHAR H
ENCODING 72
SWIDTH 475 0
DWIDTH 36 0
BBX 28 52 4 0
BITMAP
FE0007F0
FE0007F0
FE0007F0
FE0007F0
FE0007F0
FE0007F0
FE0007F0
FE0007F0
FE0007F0
FE0007F0
FE0007F0
FE0007F0
FE0007F0
FE0007F0
FE0007F0
FE0007F0
FE0007F0
FE0007F0
FE0007F0
FE0007F0
FE0007F0
FFFFFFF0
FFFFFFF0
FFFFFFF0
FFFFFFF0
FFFFFFF0
FFFFFFF0
FFFFFFF0
FE0007F0
FE0007F0
FE0007F0
FE0007F0
FE0007F0
FE0007F0
FE0007F0
FE0007F0
FE0007F0
FE0007F0
FE0007F0
FE0007F0
FE0007F0
FE0007F0
FE0007F0
FE0007F0
FE0007F0
FE0007F0
FE0007F0
FE0007F0
FE0007F0
FE0007F0
FE0007F0
FE0007F0
ENDCHAR
STARTCHAR I
ENCODING 73
SWIDTH 475 0
DWIDTH 36 0
BBX 22 52 7 0
BITMAP
FFFFFC
FFFFFC
FFFFFC
FFFFFC
FFFFFC
FFFFFC
01FC00
01FC00
01FC00
01FC00
01FC00
01FC00
01FC00
01FC00
01FC00
01FC00
01FC00
01FC00
01FC00
01FC00
01FC00
01FC00
01FC00
01FC00
01FC00
01FC00
01FC00
01FC00
01FC00
01FC00
01FC00
01FC00
01FC00
01FC00
01FC00
01FC00
01FC00
01FC00
01FC00
01FC00
01FC00
01FC00
01FC00
01FC00
01FC00
01FC00
FFFFFC
FFFFFC
FFFFFC
FFFFFC
FFFFFC
FFFFFC
ENDCHAR
STARTCHAR J
ENCODING 74
SWIDTH 475 0
DWIDTH 36 0
BBX 29 53 3 -1
BITMAP
000001F8
000001F8
000001F8
000001F8
000001F8
000001F8
000001F8
000001F8
000001F8
000001F8
000001F8
000001F8
000001F8
000001F8
000001F8
000001F8
000001F8
000001F8
000001F8
000001F8
000001F8
000001F8
000001F8
000001F8
000001F8
000001F8
000001F8
000001F8
000001F8
000001F8
000001F8
FE0001F8
FE0001F8
FE0001F8
FE0001F8
FE0001F8
FE0003F8
FE0003F8
FE0003F8
FE0003F8
7E0003F8
7F0003F8
7F0007F8
7F0007F0
3F800FF0
3FC03FF0
3FF9FFE0
1FFFFFE0
0FFFFFC0
07FFFF80
03FFFF00
01FFFC00
007FF000
ENDCHAR
STARTCHAR K
ENCODING 75
SWIDTH 475 0
DWIDTH 36 0
BBX 31 52 2 0
BITMAP
FE0003FE
FE0007FC
FE0007F8
FE000FF8
FE000FF0
FE001FE0
FE001FE0
FE003FC0
FE007FC0
FE007F80
FE00FF00
FE00FF00
FE01FE00
FE03FE00
FE03FC00
FE07F800
FE07F800
FE0FF000
FE0FF000
FE1FE000
FF1FC000
FFBFC000
FFFFC000
FFFF8000
FFFF8000
FFFFC000
FFFFC000
FFFFC000
FF87E000
FF03F000
FE03F800
FE03F800
FE03FC00
FE01FC00
FE01FE00
FE01FE00
FE00FF00
FE00FF00
FE007F80
FE007F80
FE003FC0
FE003FC0
FE001FE0
FE001FE0
FE000FF0
FE000FF0
FE0007F8
FE0007F8
FE0003FC
FE0003FC
FE0001FE
FE0001FE
ENDCHAR
STARTCHAR L
ENCODING 76
SWIDTH 475 0
DWIDTH 36 0
BBX 26 52 5 0
BITMAP
FE000000
FE000000
FE000000
FE000000
FE000000
FE000000
FE000000
FE000000
FE000000
FE000000
FE000000
FE000000
FE000000
FE000000
FE000000
FE000000
FE000000
FE000000
FE000000
FE000000
FE000000
FE000000
FE000000
FE000000
FE000000
FE000000
FE000000
FE000000
FE000000
FE000000
FE000000
FE000000
FE000000
FE000000
FE000000
FE000000
FE000000
FE000000
FE000000
FE000000
FE000000
FE000000
FE000000
FE000000
FE000000
FE000000
FFFFFFC0
FFFFFFC0
FFFFFFC0
FFFFFFC0
FFFFFFC0
FFFFFFC0
ENDCHAR
STARTCHAR M
ENCODING 77
SWIDTH 475 0
DWIDTH 36 0
BBX 30 52 3 0
BITMAP
FF0003FC
FF0003FC
FF0007FC
FF8007FC
FF8007FC
FF800FFC
FF800FFC
FFC00FFC
FFC00FFC
FFC01FFC
FFE01FFC
FFE01FFC
FFE03FFC
FFF03FFC
FFFCFFFC
FFFFFFFC
FFFFFFFC
FFFFFFFC
FE7FF9FC
FC3FF1FC
FC3FF1FC
FC1FE1FC
FC1FE1FC
FC0FC1FC
FC0F81FC
FC0781FC
FC0701FC
FC0301FC
FC0001FC
FC0001FC
FC0001FC
FC0001FC
FC0001FC
FC0001FC
FC0001FC
FC0001FC
FC0001FC
FC0001FC
FC0001FC
FC0001FC
FC0001FC
FC0001FC
FC0001FC
FC0001FC
FC0001FC
FC0001FC
FC0001FC
FC0001FC
FC0001FC
FC0001FC
FC0001FC
FC0001FC
ENDCHAR
STARTCHAR N
ENCODING 78
SWIDTH 475 0
DWIDTH 36 0
BBX 28 52 5 0
BITMAP
FF8007F0
FF8007F0
FF8007F0
FF8007F0
FFC007F0
FFC007F0
FFC007F0
FFC007F0
FFE007F0
FFE007F0
FFE007F0
FFF007F0
FFF007F0
FFF007F0
FFF007F0
FFF807F0
FFF807F0
FFF807F0
FFFC07F0
FFFC07F0
FFFC07F0
FF7E07F0
FE3E07F0
FE3E07F0
FE1F07F0
FE1F07F0
FE0F07F0
FE0F87F0
FE0F87F0
FE07C7F0
FE07CFF0
FE07EFF0
FE07FFF0
FE03FFF0
FE03FFF0
FE03FFF0
FE01FFF0
FE01FFF0
FE01FFF0
FE00FFF0
FE00FFF0
FE00FFF0
FE007FF0
FE007FF0
FE007FF0
FE007FF0
FE003FF0
FE003FF0
FE003FF0
FE001FF0
FE001FF0
FE001FF0
ENDCHAR
STARTCHAR O
ENCODING 79
SWIDTH 475 0
DWIDTH 36 0
BBX 32 54 2 -1
BITMAP
0007E000
003FF800
007FFE00
00FFFF00
01FFFF80
03FFFFC0
07F83FC0
07F01FE0
0FE00FE0
0FE007F0
1FC007F0
1FC003F8
3F8003F8
3F8001FC
3F8001FC
7F0001FC
7F0000FE
7F0000FE
7F0000FE
FE0000FE
FE00007E
FE00007F
FE00007F
FE00007F
FC00007F
FC00007F
FC00007F
FC00007F
FC00007F
FC00007F
FE00007F
FE00007F
FE00007F
FE00007E
FE0000FE
7E0000FE
7F0000FE
7F0000FE
7F0001FC
3F8001FC
3F8003FC
3FC003F8
1FC003F8
1FC007F0
0FE007F0
0FF00FE0
07F01FE0
07FC3FC0
03FFFFC0
01FFFF80
00FFFF00
007FFE00
003FF800
0007C000
ENDCHAR
STARTCHAR P
ENCODING 80
SWIDTH 475 0
DWIDTH 36 0
BBX 28 52 3 0
BITMAP
FFFFE000
FFFFF800
FFFFFE00
FFFFFF00
FFFFFF80
FFFFFFC0
FE00FFC0
FE003FE0
FE001FE0
FE000FF0
FE000FF0
FE0007F0
FE0007F0
FE0007F0
FE0007F0
FE0007F0
FE0007F0
FE0007F0
FE0007F0
FE0007F0
FE0007F0
FE000FF0
FE000FF0
FE001FE0
FE007FE0
FFFFFFC0
FFFFFFC0
FFFFFF80
FFFFFF00
FFFFFE00
FFFFF800
FE000000
FE000000
FE000000
FE000000
FE000000
FE000000
FE000000
FE000000
FE000000
FE000000
FE000000
FE000000
FE000000
FE000000
FE000000
FE000000
FE000000
FE000000
FE000000
FE000000
FE000000
ENDCHAR
STARTCHAR Q
ENCODING 81
SWIDTH 475 0
DWIDTH 36 0
BBX 32 56 2 -3
BITMAP
0007C000
003FF800
00FFFC00
01FFFE00
03FFFF00
07FFFF80
07F87F80
0FE01FC0
0FE01FE0
1FC00FE0
1FC00FF0
3F8007F0
3F8007F0
3F8003F8
7F0003F8
7F0003F8
7F0001FC
7E0001FC
FE0001FC
FE0001FC
FE0000FC
FE0000FC
FE0000FE
FC0000FE
FC0000FE
FC0000FE
FC0000FE
FC0000FE
FC0000FE
FC0000FE
FC0000FE
FE0000FE
FE0000FC
FE0001FC
FE0001FC
FE0031FC
7E0071FC
7F00F9FC
7F01FFF8
7F00FFF8
3F80FFF8
3F807FF0
3F803FF0
1FC01FF0
1FC00FE0
0FE01FE0
0FF01FF0
07F87FF8
07FFFFFC
03FFFFFC
01FFFEFE
00FFFC7F
003FF03E
000FC01C
00000008
00000008
ENDCHAR
STARTCHAR R
ENCODING 82
SWIDTH 475 0
DWIDTH 36 0
BBX 27 52 4 0
BITMAP
FFFFC000
FFFFE000
FFFFF800
FFFFFC00
FFFFFE00
FFFFFF00
FE01FF00
FE007F80
FE003F80
FE003F80
FE003F80
FE003FC0
FE003FC0
FE003FC0
FE003FC0
FE003FC0
FE003FC0
FE003FC0
FE003FC0
FE003FC0
FE003F80
FE003F80
FE007F80
FE00FF80
FFFFFF00
FFFFFE00
FFFFF800
FFFFF800
FFFFFC00
FFFFFE00
FFFFFF00
FE01FF00
FE007F80
FE003F80
FE003FC0
FE001FC0
FE001FC0
FE001FC0
FE001FC0
FE001FC0
FE001FC0
FE001FC0
FE001FC0
FE000FC0
FE000FE0
FE000FE0
FE000FE0
FE000FE0
FE000FE0
FE000FE0
FE000FE0
FE000FE0
ENDCHAR
STARTCHAR S
ENCODING 83
SWIDTH 475 0
DWIDTH 36 0
BBX 30 53 3 -1
BITMAP
003FE000
00FFF800
01FFFC00
01FFFE00
03FFFE00
07FFFF00
0FE03F80
1FC01FC0
3F800FE0
3F800FE0
7F000FE0
7F000FE0
7F0007E0
7F0007E0
7F0007E0
7F000000
7F800000
7F800000
3F800000
3FC00000
3FF00000
1FFE0000
1FFFC000
0FFFF800
07FFFE00
01FFFF00
007FFFC0
000FFFE0
0001FFF0
00003FF8
00001FF8
000007F8
000003FC
000003FC
000001FC
000001FC
FE0001FC
FE0003F8
FE0003F8
FE0003F8
FF0003F8
7F0007F8
7F8007F0
7F800FF0
3FC00FE0
1FE03FE0
0FFFFFC0
0FFFFF80
07FFFF00
03FFFE00
01FFFC00
00FFF000
000F0000
ENDCHAR
STARTCHAR T
ENCODING 84
SWIDTH 475 0
DWIDTH 36 0
BBX 29 52 3 0
BITMAP
FFFFFFF8
FFFFFFF8
FFFFFFF8
FFFFFFF8
FFFFFFF8
FFFFFFF8
001FC000
001FC000
001FC000
001FC000
001FC000
001FC000
001FC000
001FC000
001FC000
001FC000
001FC000
001FC000
001FC000
001FC000
001FC000
001FC000
001FC000
001FC000
001FC000
001FC000
001FC000
001FC000
001FC000
001FC000
001FC000
001FC000
001FC000
001FC000
001FC000
001FC000
001FC000
001FC000
001FC000
001FC000
001FC000
001FC000
001FC000
001FC000
001FC000
001FC000
001FC000
001FC000
001FC000
001FC000
001FC000
001FC000
ENDCHAR
STARTCHAR U
ENCODING 85
SWIDTH 475 0
DWIDTH 36 0
BBX 28 53 4 -1
BITMAP
FE0007F0
FE0007F0
FE0007F0
FE0007F0
FE0007F0
FE0007F0
FE0007F0
FE0007F0
FE0007F0
FE0007F0
FE0007F0
FE0007F0
FE0007F0
FE0007F0
FE0007F0
FE0007F0
FE0007F0
FE0007F0
FE0007F0
FE0007F0
FE0007F0
FE0007F0
FE0007F0
FE0007F0
FE0007F0
FE0007F0
FE0007F0
FE0007F0
FE0007F0
FE0007F0
FE0007F0
FE0007F0
FE0007F0
FE0007F0
FE0007F0
FE0007F0
FE0007F0
FE0007F0
FE0007F0
FE0007F0
7E0007F0
7F000FF0
7F000FE0
7F000FE0
7F801FE0
3FC03FE0
3FE07FC0
1FFFFFC0
1FFFFF80
0FFFFF00
07FFFE00
03FFFC00
00FFF800
ENDCHAR
STARTCHAR V
ENCODING 86
SWIDTH 475 0
DWIDTH 36 0
BBX 29 52 3 0
BITMAP
FE0003F8
FE0003F8
FE0003F8
FE0003F8
FE0003F8
FE0003F8
FE0003F8
7F0003F8
7F0003F8
7F0003F8
7F0007F0
7F8007F0
3F8007F0
3F800FF0
3F800FE0
3FC00FE0
1FC00FE0
1FC01FE0
1FC01FC0
0FE01FC0
0FE01FC0
0FE03FC0
0FE03F80
07F03F80
07F03F80
07F07F00
07F07F00
03F87F00
03F87F00
03F8FE00
01F8FE00
01FCFE00
01FCFC00
01FFFC00
00FFFC00
00FFFC00
00FFF800
007FF800
007FF800
007FF800
007FF000
003FF000
003FF000
003FE000
003FE000
001FE000
001FE000
001FC000
000FC000
000FC000
000FC000
000F8000
ENDCHAR
STARTCHAR W
ENCODING 87
SWIDTH 475 0
DWIDTH 36 0
BBX 33 52 1 0
BITMAP
FE00003F80
FE00003F80
FE00003F80
FE00003F80
FE00003F80
FE00003F80
FE00003F80
FE00003F80
FE00003F80
FE00003F80
FE00003F80
FE00003F80
FE00003F80
FE00003F80
FE00003F80
FE00003F80
FE00003F80
FE00003F80
FE00003F80
FE00003F80
FE00C03F80
FE01C03F80
FE01E03F80
FE01E03F80
FE03E03F80
FE03E03F80
FE03E03F80
FE03E03F80
FE03F03F80
FE03F03F80
FE07F83F80
FE0FF83F80
FE0FF83F80
FE0FF83F80
FF07F83F80
FF07F83F80
FF07F83F80
7F0FF87F80
7F0FF87F80
7FFFFFFF00
3FFFFFFF00
3FFFFFFE00
3FFC0FFE00
1FF80FFE00
1FF80FFC00
0FF807FC00
0FF807FC00
0FF807F800
07F007F800
07F003F800
07F003F000
03F003F000
ENDCHAR
STARTCHAR X
ENCODING 88
SWIDTH 475 0
DWIDTH 36 0
BBX 29 52 3 0
BITMAP
7F0003F8
7F8007F0
3F8007F0
3F800FE0
1FC00FE0
1FC00FE0
0FE01FC0
0FE01FC0
0FE01F80
07F03F80
07F03F00
03F07F00
03F87F00
03F87E00
01F8FE00
01FCFC00
00FFFC00
00FFFC00
007FF800
007FF800
007FF000
003FF000
003FF000
003FF000
003FF000
003FF000
003FF000
003FF000
003FF000
003FF000
007FF000
007FF800
00FFF800
00FFFC00
00FCFC00
01F8FC00
01F8FE00
03F87E00
03F07F00
07F03F00
07F03F80
07E03F80
0FE01F80
0FC01FC0
1FC01FC0
1FC00FE0
3F800FE0
3F800FF0
3F8007F0
7F0007F0
7F0003F8
FF0003F8
ENDCHAR
STARTCHAR Y
ENCODING 89
SWIDTH 475 0
DWIDTH 36 0
BBX 30 52 3 0
BITMAP
FE0001FC
FE0001FC
FE0001FC
FE0001FC
FE0003FC
FF0003F8
FF0003F8
7F0003F8
7F0003F8
7F8007F0
3F8007F0
3FC00FE0
1FC00FE0
1FE01FC0
0FE01FC0
0FE01FC0
07F03F80
07F03F80
03F87F00
03F87F00
03FCFE00
01FFFE00
01FFFC00
00FFFC00
00FFFC00
007FF800
007FF800
003FF000
003FF000
001FE000
001FE000
001FE000
001FE000
001FE000
001FE000
001FE000
001FE000
001FE000
001FE000
001FE000
001FE000
001FE000
001FE000
001FE000
001FE000
001FE000
001FE000
001FE000
001FE000
001FE000
001FE000
001FE000
ENDCHAR
STARTCHAR Z
ENCODING 90
SWIDTH 475 0
DWIDTH 36 0
BBX 30 52 3 0
BITMAP
3FFFFFFC
3FFFFFFC
3FFFFFFC
3FFFFFFC
3FFFFFFC
3FFFFFFC
000001FC
000001FC
000003F8
000003F0
000007F0
00000FE0
00000FE0
00001FC0
00001F80
00003F80
00007F00
00007F00
0000FE00
0000FE00
0001FC00
0003F800
0003F800
0007F000
0007F000
000FE000
001FC000
001FC000
003F8000
003F8000
007F0000
007F0000
00FE0000
01FC0000
01FC0000
03F80000
03F80000
07F00000
0FE00000
0FE00000
1FC00000
1FC00000
3F800000
7F800000
7F000000
FE000000
FFFFFFFC
FFFFFFFC
FFFFFFFC
FFFFFFFC
FFFFFFFC
FFFFFFFC
ENDCHAR
STARTCHAR bracketleft
ENCODING 91
SWIDTH 475 0
DWIDTH 36 0
BBX 14 59 11 -7
BITMAP
FFFC
FFFC
FFFC
FFFC
FFFC
FC00
FC00
FC00
FC00
FC00
FC00
FC00
FC00
FC00
FC00
FC00
FC00
FC00
FC00
FC00
FC00
FC00
FC00
FC00
FC00
FC00
FC00
FC00
FC00
FC00
FC00
FC00
FC00
FC00
FC00
FC00
FC00
FC00
FC00
FC00
FC00
FC00
FC00
FC00
FC00
FC00
FC00
FC00
FC00
FC00
FC00
FC00
FC00
FC00
FFFC
FFFC
FFFC
FFFC
FFFC
ENDCHAR
STARTCHAR backslash
ENCODING 92
SWIDTH 475 0
DWIDTH 36 0
BBX 22 60 7 -7
BITMAP
FC0000
FE0000
FE0000
7E0000
7E0000
7F0000
3F0000
3F0000
3F0000
3F8000
1F8000
1F8000
1F8000
1FC000
0FC000
0FC000
0FE000
0FE000
07E000
07E000
07F000
03F000
03F000
03F000
03F800
01F800
01F800
01F800
01FC00
00FC00
00FC00
00FC00
00FE00
007E00
007E00
007F00
007F00
003F00
003F00
003F80
001F80
001F80
001F80
001FC0
000FC0
000FC0
000FC0
000FE0
0007E0
0007E0
0007E0
0007F0
0003F0
0003F0
0003F0
0003F8
0001F8
0001F8
0001FC
0000FC
ENDCHAR
STARTCHAR bracketright
ENCODING 93
SWIDTH 475 0
DWIDTH 36 0
BBX 14 59 11 -7
BITMAP
FFFC
FFFC
FFFC
FFFC
FFFC
00FC
00FC
00FC
00FC
00FC
00FC
00FC
00FC
00FC
00FC
00FC
00FC
00FC
00FC
00FC
00FC
00FC
00FC
00FC
00FC
00FC
00FC
00FC
00FC
00FC
00FC
00FC
00FC
00FC
00FC
00FC
00FC
00FC
00FC
00FC
00FC
00FC
00FC
00FC
00FC
00FC
00FC
00FC
00FC
00FC
00FC
00FC
00FC
00FC
FFFC
FFFC
FFFC
FFFC
FFFC
ENDCHAR
STARTCHAR asciicircum
ENCODING 94
SWIDTH 475 0
DWIDTH 36 0
BBX 26 17 5 34
BITMAP
000C0000
003F0000
007F0000
007F8000
00FFC000
01FFE000
03FFE000
07F3F000
07E1F800
0FC0FC00
1F807E00
3F003E00
7E001F00
7C000F80
F80007C0
F00003C0
E00001C0
ENDCHAR
STARTCHAR underscore
ENCODING 95
SWIDTH 475 0
DWIDTH 36 0
BBX 36 6 0 -18
BITMAP
FFFFFFFFF0
FFFFFFFFF0
FFFFFFFFF0
FFFFFFFFF0
FFFFFFFFF0
FFFFFFFFF0
ENDCHAR
STARTCHAR grave
ENCODING 96
SWIDTH 475 0
DWIDTH 36 0
BBX 14 12 11 46
BITMAP
FE00
7F00
3F00
1F80
1FC0
0FC0
07E0
03E0
01F0
00F8
00F8
007C
ENDCHAR
STARTCHAR a
ENCODING 97
SWIDTH 475 0
DWIDTH 36 0
BBX 27 42 6 -1
BITMAP
007F8000
01FFE000
07FFF000
0FFFF800
1FFFFC00
1FFFFE00
3FC07F00
3F803F00
7F003F80
7F001F80
7F001F80
7F001F80
00001F80
00001F80
00001F80
00003F80
000FFF80
00FFFF80
07FFFF80
0FFFFF80
1FFFFF80
3FFF9F80
7FE01F80
7F001F80
FE001F80
FE001F80
FC001F80
FC001F80
FC001F80
FC001F80
FC001F80
FC003F80
FC003F80
FE007F80
FE00FFC0
FFFFFFC0
7FFFE7C0
7FFFC7E0
3FFF83E0
1FFF01E0
0FFE00C0
01F00040
ENDCHAR
STARTCHAR b
ENCODING 98
SWIDTH 475 0
DWIDTH 36 0
BBX 27 52 4 0
BITMAP
FC000000
FC000000
FC000000
FC000000
FC000000
FC000000
FC000000
FC000000
FC000000
FC000000
FC0FC000
FC3FF000
FC7FF800
FCFFFC00
FDFFFE00
FDFFFF00
FDFFFF00
FFE03F80
FFC01F80
FF801FC0
FF800FC0
FF800FC0
FF000FC0
FF000FE0
FF0007E0
FF0007E0
FF0007E0
FF0007E0
FF0007E0
FF0007E0
FF0007E0
FF0007E0
FF0007E0
FF0007E0
FF0007E0
FF0007E0
FF0007E0
FF0007E0
FF000FE0
FF000FC0
FF800FC0
FF800FC0
FF801FC0
FFC01F80
FFE03F80
FDF1FF00
FDFFFF00
FDFFFE00
FCFFFC00
FC7FF800
FC3FF000
000FC000
ENDCHAR
STARTCHAR c
ENCODING 99
SWIDTH 475 0
DWIDTH 36 0
BBX 29 42 3 -1
BITMAP
003FE000
007FF800
01FFFC00
03FFFE00
03FFFF00
07FFFF80
0FF87FC0
0FE01FC0
1FE00FE0
1FC00FE0
3F8007F0
3F800000
7F000000
7F000000
7E000000
7E000000
FE000000
FE000000
FE000000
FC000000
FC000000
FC000000
FE000000
FE000000
FE000000
7E000000
7E0001F8
7F0003F8
7F0003F8
3F0003F0
3F8007F0
3FC007E0
1FC00FE0
1FE01FC0
0FF03FC0
07FFFF80
07FFFF00
03FFFF00
01FFFC00
00FFF800
003FF000
000F8000
ENDCHAR
STARTCHAR d
ENCODING 100
SWIDTH 475 0
DWIDTH 36 0
BBX 27 52 5 0
BITMAP
000007E0
000007E0
000007E0
000007E0
000007E0
000007E0
000007E0
000007E0
000007E0
000007E0
007E07E0
01FF87E0
03FFC7E0
07FFE7E0
0FFFF7E0
1FFFF7E0
1FFFF7E0
3F80FFE0
3F007FE0
7F003FE0
7E003FE0
7E003FE0
7E001FE0
FE001FE0
FC001FE0
FC001FE0
FC001FE0
FC001FE0
FC001FE0
FC001FE0
FC001FE0
FC001FE0
FC001FE0
FC001FE0
FC001FE0
FC001FE0
FC001FE0
FC001FE0
FE001FE0
7E001FE0
7E003FE0
7E003FE0
7F003FE0
3F007FE0
3F80FFE0
1FF1F7E0
1FFFF7E0
0FFFF7E0
07FFE7E0
03FFC7E0
01FF87E0
007E0000
ENDCHAR
STARTCHAR e
ENCODING 101
SWIDTH 475 0
DWIDTH 36 0
BBX 28 43 4 -1
BITMAP
001F8000
00FFF000
01FFF800
03FFF800
07FFFC00
0FFFFC00
1FFFFF00
1FE07F00
3F803F80
3F801FC0
7F000FC0
7F000FE0
7E000FE0
7E0007E0
FE0007E0
FE0007E0
FE0007F0
FE0007F0
FFFFFFF0
FFFFFFF0
FFFFFFF0
FFFFFFF0
FFFFFFF0
FFFFFFF0
FE000000
FE000000
FE000000
FE000000
FE000000
7F0007E0
7F000FE0
7F000FE0
7F800FE0
3FC00FC0
3FE01FC0
1FF03FC0
0FF87F80
07FFFF80
03FFFF00
01FFFE00
007FFC00
003FF800
001FE000
ENDCHAR
STARTCHAR f
ENCODING 102
SWIDTH 475 0
DWIDTH 36 0
BBX 29 53 3 0
BITMAP
00000FF0
0000FFF8
0003FFF8
0007FFF8
000FFFF8
000FFFF8
001FF800
001FE000
001FC000
001F8000
001F8000
001F8000
001F8000
FFFFFFE0
FFFFFFE0
FFFFFFE0
FFFFFFE0
FFFFFFE0
001F8000
001F8000
001F8000
001F8000
001F8000
001F8000
001F8000
001F8000
001F8000
001F8000
001F8000
001F8000
001F8000
001F8000
001F8000
001F8000
001F8000
001F8000
001F8000
001F8000
001F8000
001F8000
001F8000
001F8000
001F8000
001F8000
001F8000
001F8000
001F8000
001F8000
001F8000
001F8000
001F8000
001F8000
001F8000
ENDCHAR
STARTCHAR g
ENCODING 103
SWIDTH 475 0
DWIDTH 36 0
BBX 28 48 5 -6
BITMAP
001C0000
00FF8000
03FFE1F0
07FFF1F0
0FFFF9F0
0FFFF9F0
1FFFFDF0
1FFFFFF0
3FC07FF0
3F803FF0
7F001FF0
7F001FF0
7E000FF0
7E000FF0
FE000FF0
FE000FF0
FE0007F0
FC0007F0
FC0007F0
FC0007F0
FC0007F0
FC000FF0
FC000FF0
FE000FF0
FE000FF0
7E000FF0
7F001FF0
7F001FF0
3F803FF0
3FE07FF0
1FFFFFF0
1FFFFBF0
0FFFFBF0
07FFF3F0
03FFE3F0
01FFC3F0
003F07E0
000007E0
00000FE0
7E001FC0
7E003F80
7F007F80
3F81FF00
3FFFFE00
3FFFFC00
1FFFF000
0FFFE000
03FF0000
ENDCHAR
STARTCHAR h
ENCODING 104
SWIDTH 475 0
DWIDTH 36 0
BBX 28 52 4 0
BITMAP
FE000000
FE000000
FE000000
FE000000
FE000000
FE000000
FE000000
FE000000
FE000000
FE000000
FE01FC00
FE1FFE00
FE7FFF00
FEFFFF00
FFFFFF80
FFFFFFC0
FFFFFFE0
FFF00FE0
FFC00FF0
FF8007F0
FF8007F0
FF0007F0
FF0003F0
FF0003F0
FE0003F0
FE0003F0
FE0003F0
FE0003F0
FE0003F0
FE0003F0
FE0003F0
FE0003F0
FE0003F0
FE0003F0
FE0003F0
FE0003F0
FE0003F0
FE0003F0
FE0003F0
FE0003F0
FE0003F0
FE0003F0
FE0003F0
FE0003F0
FE0003F0
FE0003F0
FE0003F0
FE0003F0
FE0003F0
FE0003F0
FE0003F0
FE0003F0
ENDCHAR
STARTCHAR i
ENCODING 105
SWIDTH 475 0
DWIDTH 36 0
BBX 25 52 5 0
BITMAP
007F0000
007F0000
007F0000
007F0000
007F0000
007F0000
00000000
00000000
00000000
00000000
00000000
1FFF0000
1FFF0000
1FFF0000
1FFF0000
1FFF0000
1FFF0000
007F0000
007F0000
007F0000
007F0000
007F0000
007F0000
007F0000
007F0000
007F0000
007F0000
007F0000
007F0000
007F0000
007F0000
007F0000
007F0000
007F0000
007F0000
007F0000
007F0000
007F0000
007F0000
007F0000
007F0000
007F0000
007F0000
007F0000
007F0000
007F0000
FFFFFF80
FFFFFF80
FFFFFF80
FFFFFF80
FFFFFF80
FFFFFF80
ENDCHAR
STARTCHAR j
ENCODING 106
SWIDTH 475 0
DWIDTH 36 0
BBX 14 58 11 -6
BITMAP
01FC
01FC
01FC
01FC
01FC
01FC
0000
0000
0000
0000
0000
0000
FFFC
FFFC
FFFC
FFFC
FFFC
01FC
01FC
01FC
01FC
01FC
01FC
01FC
01FC
01FC
01FC
01FC
01FC
01FC
01FC
01FC
01FC
01FC
01FC
01FC
01FC
01FC
01FC
01FC
01FC
01FC
01FC
01FC
01FC
01FC
01FC
01FC
01FC
01FC
01FC
01F8
03F8
03F8
1FF8
FFF0
FFF0
FFE0
ENDCHAR
STARTCHAR k
ENCODING 107
SWIDTH 475 0
DWIDTH 36 0
BBX 25 52 5 0
BITMAP
FC000000
FC000000
FC000000
FC000000
FC000000
FC000000
FC000000
FC000000
FC000000
FC000000
FC000000
FC000000
FC003F80
FC007F00
FC007F00
FC00FE00
FC01FC00
FC01F800
FC03F800
FC07F000
FC0FE000
FC0FE000
FC1FC000
FC3F8000
FFFF8000
FFFF0000
FFFF0000
FFFF0000
FFFF0000
FFFF0000
FFFF0000
FFFF8000
FFFF8000
FC1F8000
FC0FC000
FC0FC000
FC07E000
FC07E000
FC07F000
FC03F000
FC03F000
FC01F800
FC01F800
FC01FC00
FC00FC00
FC00FE00
FC007E00
FC007E00
FC003F00
FC003F00
FC003F80
FC001F80
ENDCHAR
STARTCHAR l
ENCODING 108
SWIDTH 475 0
DWIDTH 36 0
BBX 25 52 5 0
BITMAP
1FFF0000
1FFF0000
1FFF0000
1FFF0000
1FFF0000
1FFF0000
007F0000
007F0000
007F0000
007F0000
007F0000
007F0000
007F0000
007F0000
007F0000
007F0000
007F0000
007F0000
007F0000
007F0000
007F0000
007F0000
007F0000
007F0000
007F0000
007F0000
007F0000
007F0000
007F0000
007F0000
007F0000
007F0000
007F0000
007F0000
007F0000
007F0000
007F0000
007F0000
007F0000
007F0000
007F0000
007F0000
007F0000
007F0000
007F0000
007F0000
FFFFFF80
FFFFFF80
FFFFFF80
FFFFFF80
FFFFFF80
FFFFFF80
ENDCHAR
STARTCHAR m
ENCODING 109
SWIDTH 475 0
DWIDTH 36 0
BBX 31 42 3 0
BITMAP
003001C0
01FE07E0
FFFF0FF0
FFFF9FF0
FFFFBFF8
FFFFFFF8
FFFFFFFC
FF1FF8FC
FE0FF07E
FE0FE07E
FE0FE07E
FC07E07E
FC07E07E
FC07E07E
FC07E07E
FC07E07E
FC07E07E
FC07E07E
FC07E07E
FC07E07E
FC07E07E
FC07E07E
FC07E07E
FC07E07E
FC07E07E
FC07E07E
FC07E07E
FC07E07E
FC07E07E
FC07E07E
FC07E07E
FC07E07E
FC07E07E
FC07E07E
FC07E07E
FC07E07E
FC07E07E
FC07E07E
FC07E07E
FC07E07E
FC07E07E
FC07E07E
ENDCHAR
STARTCHAR n
ENCODING 110
SWIDTH 475 0
DWIDTH 36 0
BBX 27 42 4 0
BITMAP
0003F800
001FFC00
FE3FFC00
FE7FFE00
FEFFFE00
FEFFFF00
FFFFFF80
FFF01FC0
FFC01FC0
FF800FE0
FF800FE0
FF000FE0
FF000FE0
FF0007E0
FE0007E0
FE0007E0
FE0007E0
FE0007E0
FE0007E0
FE0007E0
FE0007E0
FE0007E0
FE0007E0
FE0007E0
FE0007E0
FE0007E0
FE0007E0
FE0007E0
FE0007E0
FE0007E0
FE0007E0
FE0007E0
FE0007E0
FE0007E0
FE0007E0
FE0007E0
FE0007E0
FE0007E0
FE0007E0
FE0007E0
FE0007E0
FE0007E0
ENDCHAR
STARTCHAR o
ENCODING 111
SWIDTH 475 0
DWIDTH 36 0
BBX 29 43 4 -1
BITMAP
001FE000
007FF000
01FFFC00
03FFFE00
07FFFF00
07FFFF80
0FF07F80
1FE03FC0
1FC01FC0
3F800FE0
3F800FE0
3F0007F0
7F0007F0
7F0003F0
7E0003F0
FE0003F8
FE0003F8
FE0003F8
FE0001F8
FC0001F8
FC0001F8
FC0001F8
FC0001F8
FE0001F8
FE0003F8
FE0003F8
FE0003F8
7E0003F8
7E0003F0
7F0007F0
7F0007F0
3F8007E0
3F800FE0
1FC01FE0
1FC01FC0
0FE03FC0
0FFDFF80
07FFFF00
03FFFE00
01FFFC00
00FFF800
007FF000
000F8000
ENDCHAR
STARTCHAR p
ENCODING 112
SWIDTH 475 0
DWIDTH 36 0
BBX 27 48 5 -6
BITMAP
000FC000
FC7FE000
FCFFF800
FDFFFC00
FDFFFE00
FFFFFE00
FFF1FF00
FFC07F80
FF803F80
FF801FC0
FF001FC0
FF001FC0
FF000FE0
FF000FE0
FE000FE0
FE000FE0
FE000FE0
FE000FE0
FE000FE0
FE000FE0
FE000FE0
FE000FE0
FE000FE0
FE000FE0
FE000FE0
FF000FE0
FF000FE0
FF000FC0
FF001FC0
FF801FC0
FF801F80
FFC03F80
FFE07F00
FFFFFF00
FDFFFE00
FDFFFC00
FCFFF800
FC7FF000
FC3FE000
FC000000
FC000000
FC000000
FC000000
FC000000
FC000000
FC000000
FC000000
FC000000
ENDCHAR
STARTCHAR q
ENCODING 113
SWIDTH 475 0
DWIDTH 36 0
BBX 27 48 5 -6
BITMAP
003F0000
00FFC7E0
03FFE7E0
07FFF7E0
07FFF7E0
0FFFFFE0
1FF1FFE0
1FC07FE0
3F803FE0
3F003FE0
7F001FE0
7F001FE0
7E001FE0
FE001FE0
FE000FE0
FE000FE0
FE000FE0
FE000FE0
FE000FE0
FE000FE0
FE000FE0
FE000FE0
FE000FE0
FE000FE0
FE000FE0
FE000FE0
FE001FE0
7F001FE0
7F001FE0
7F001FE0
3F003FE0
3F803FE0
1FC07FE0
1FFFFFE0
0FFFF7E0
07FFF7E0
03FFE7E0
01FFC7E0
00FF87E0
000007E0
000007E0
000007E0
000007E0
000007E0
000007E0
000007E0
000007E0
000007E0
ENDCHAR
STARTCHAR r
ENCODING 114
SWIDTH 475 0
DWIDTH 36 0
BBX 25 42 5 0
BITMAP
00078000
001FF000
FC7FF800
FCFFFC00
FDFFFE00
FDFFFE00
FFE0FF00
FFC03F00
FF803F00
FF001F00
FF001F00
FF001F80
FE001F80
FE001F80
FE000000
FE000000
FE000000
FE000000
FE000000
FE000000
FE000000
FE000000
FE000000
FE000000
FE000000
FE000000
FE000000
FE000000
FE000000
FE000000
FE000000
FE000000
FE000000
FE000000
FE000000
FE000000
FE000000
FE000000
FE000000
FE000000
FE000000
FE000000
ENDCHAR
STARTCHAR s
ENCODING 115
SWIDTH 475 0
DWIDTH 36 0
BBX 26 42 5 0
BITMAP
003E0000
01FFC000
07FFE000
0FFFF000
1FFFF800
3FFFFC00
3F81FC00
7F00FE00
7E007E00
7E003E00
7E003F00
7E003F00
7E000000
7E000000
7F000000
7F800000
7FE00000
3FFC0000
3FFF8000
1FFFF000
0FFFFC00
03FFFE00
00FFFF00
001FFF80
0003FF80
00007FC0
00001FC0
00001FC0
00000FC0
FC000FC0
FC000FC0
FC000FC0
FC001FC0
FE001FC0
7E003F80
7F007F80
3FFFFF00
3FFFFF00
1FFFFE00
0FFFFC00
01FFF000
007FC000
ENDCHAR
STARTCHAR t
ENCODING 116
SWIDTH 475 0
DWIDTH 36 0
BBX 26 49 4 0
BITMAP
007F0000
007F0000
007F0000
007F0000
007F0000
007F0000
007F0000
007F0000
007F0000
FFFFFFC0
FFFFFFC0
FFFFFFC0
FFFFFFC0
FFFFFFC0
FFFFFFC0
007F0000
007F0000
007F0000
007F0000
007F0000
007F0000
007F0000
007F0000
007F0000
007F0000
007F0000
007F0000
007F0000
007F0000
007F0000
007F0000
007F0000
007F0000
007F0000
007F0000
007F0000
007F0000
007F0000
007F0000
007F0000
007F0000
003F8000
003FC000
003FFFC0
001FFFC0
001FFFC0
000FFFC0
0003FFC0
0001FFC0
ENDCHAR
STARTCHAR u
ENCODING 117
SWIDTH 475 0
DWIDTH 36 0
BBX 25 41 6 0
BITMAP
FC001F80
FC001F80
FC001F80
FC001F80
FC001F80
FC001F80
FC001F80
FC001F80
FC001F80
FC001F80
FC001F80
FC001F80
FC001F80
FC001F80
FC001F80
FC001F80
FC001F80
FC001F80
FC001F80
FC001F80
FC001F80
FC001F80
FC001F80
FC001F80
FC001F80
FC001F80
FC001F80
FC003F80
FC003F80
FE003F80
FE007F80
FE007F80
FE00FF80
FF01FF80
7F83FF80
7FFFFF80
3FFFFF80
3FFF9F80
1FFF0000
07FE0000
01F80000
ENDCHAR
STARTCHAR v
ENCODING 118
SWIDTH 475 0
DWIDTH 36 0
BBX 30 40 3 0
BITMAP
FE0001FC
FE0001F8
7E0001F8
7E0003F8
7F0003F0
3F0003F0
3F0007F0
3F8007F0
3F8007E0
1F8007E0
1F800FE0
1FC00FC0
0FC00FC0
0FC01FC0
0FE01FC0
0FE01F80
07E03F80
07E03F80
07F03F80
07F03F00
03F07F00
03F87F00
03F87E00
01F8FE00
01FCFE00
01FCFE00
01FCFC00
00FFFC00
00FFFC00
00FFF800
007FF800
007FF800
007FF800
007FF000
003FF000
003FF000
003FE000
001FE000
001FE000
001FE000
ENDCHAR
STARTCHAR w
ENCODING 119
SWIDTH 475 0
DWIDTH 36 0
BBX 37 40 -1 0
BITMAP
FC007801F8
FC007801F8
7E007801F8
7E00F801F8
7E00F803F8
7E00FC03F0
3F00FC03F0
3F01FC03F0
3F01FC03F0
3F01FC07F0
3F01FC07E0
1F80FC07E0
1F80FC07E0
1F80FC0FE0
1F80FC0FC0
1F80FC0FC0
0FC0F80FC0
0FC0F80FC0
0FC0FC1FC0
0FC1FE1F80
0FE3FF1F80
07E7DF9F80
07FFCFFF80
07FF8FFF80
07FF8FFF00
07FF87FF00
03FF87FF00
03FF87FF00
03FF07FF00
03FF07FE00
03FF03FE00
01FF03FE00
01FF03FE00
01FE03FE00
01FE03FC00
01FE01FC00
00FE01FC00
00FE01FC00
00FE01FC00
00FC01F800
ENDCHAR
STARTCHAR x
ENCODING 120
SWIDTH 475 0
DWIDTH 36 0
BBX 29 40 3 0
BITMAP
7F0007F0
3F8007F0
3F800FE0
1FC00FE0
1FC01FC0
0FE01FC0
0FE03F80
07F03F80
07F87F00
03F87F00
03FCFE00
01FFFC00
01FFFC00
00FFF800
007FF800
007FF000
003FF000
003FF000
003FF000
003FF000
003FF000
003FF000
007FF000
007FF000
00FFF800
00FFFC00
01FFFC00
01FFFE00
03F8FE00
03F07F00
07F07F00
07E03F80
0FE03F80
0FC01FC0
1FC01FC0
1F800FE0
3F800FF0
7F0007F0
7F0007F8
FF0003F8
ENDCHAR
STARTCHAR y
ENCODING 121
SWIDTH 475 0
DWIDTH 36 0
BBX 29 44 4 -4
BITMAP
FE0003F8
FE0003F8
FE0003F0
7E0007F0
7E0007F0
7F0007E0
7F0007E0
7F000FE0
7F000FE0
3F000FC0
3F001FC0
3F801FC0
3F801F80
3F801F80
1F803F80
1F803F80
1FC03F00
1FC07F00
1FC07F00
1FC07E00
0FC07E00
0FC0FE00
0FE0FE00
0FE0FC00
0FE1FC00
07FFFC00
07FFF800
07FFF800
03FFF800
03FFF000
01FFF000
01FFF000
00FFF000
00FFE000
007FE000
007FC000
003FC000
003F8000
003F8000
003F0000
7FFF0000
7FFE0000
7FFE0000
7FFC0000
ENDCHAR
STARTCHAR z
ENCODING 122
SWIDTH 475 0
DWIDTH 36 0
BBX 25 40 5 0
BITMAP
FFFFFF00
FFFFFF00
FFFFFF00
FFFFFF00
FFFFFF00
00003F00
00007F00
00007E00
0000FE00
0001FC00
0001FC00
0003F800
0003F000
0007F000
000FE000
000FE000
001FC000
003F8000
003F8000
007F0000
007E0000
00FE0000
01FC0000
01FC0000
03F80000
03F00000
07F00000
0FE00000
0FE00000
1FC00000
3F800000
3F800000
7F000000
7F000000
FFFFFF80
FFFFFF80
FFFFFF80
FFFFFF80
FFFFFF80
FFFFFF80
ENDCHAR
STARTCHAR braceleft
ENCODING 123
SWIDTH 475 0
DWIDTH 36 0
BBX 26 60 5 -7
BITMAP
0000FFC0
0007FFC0
000FFFC0
000FFFC0
001FFC00
001FE000
001FC000
001F8000
001F8000
003F8000
003F8000
003F8000
003F8000
003F8000
003F8000
003F8000
003F8000
003F8000
003F8000
003F8000
003F8000
003F8000
003F8000
003F0000
007F0000
00FF0000
01FE0000
FFFC0000
FFF80000
FFC00000
FFF00000
FFFC0000
07FE0000
00FF0000
007F0000
007F0000
003F0000
003F8000
003F8000
003F8000
003F8000
003F8000
003F8000
003F8000
003F8000
003F8000
003F8000
003F8000
003F8000
003F8000
001F8000
001F8000
001F8000
001FC000
001FF000
000FFFC0
000FFFC0
0007FFC0
0001FFC0
00003FC0
ENDCHAR
STARTCHAR bar
ENCODING 124
SWIDTH 475 0
DWIDTH 36 0
BBX 6 64 15 -7
BITMAP
FC
FC
FC
FC
FC
FC
FC
FC
FC
FC
FC
FC
FC
FC
FC
FC
FC
FC
FC
FC
FC
FC
FC
FC
FC
FC
FC
FC
FC
FC
FC
FC
FC
FC
FC
FC
FC
FC
FC
FC
FC
FC
FC
FC
FC
FC
FC
FC
FC
FC
FC
FC
FC
FC
FC
FC
FC
FC
FC
FC
FC
FC
FC
FC
ENDCHAR
STARTCHAR braceright
ENCODING 125
SWIDTH 475 0
DWIDTH 36 0
BBX 26 60 5 -7
BITMAP
FFC00000
FFF00000
FFF80000
FFFC0000
1FFC0000
01FE0000
00FE0000
00FE0000
007E0000
007E0000
007E0000
007E0000
007E0000
007E0000
007E0000
007E0000
007E0000
007E0000
007E0000
007E0000
007E0000
007E0000
007F0000
007F0000
003F8000
003F8000
003FE000
001FFFC0
0007FFC0
0001FFC0
0003FFC0
000FFFC0
001FF800
003FC000
003F8000
007F0000
007F0000
007E0000
007E0000
007E0000
007E0000
007E0000
007E0000
007E0000
007E0000
007E0000
007E0000
007E0000
007E0000
007E0000
007E0000
00FE0000
00FE0000
01FE0000
03FC0000
FFFC0000
FFF80000
FFF80000
FFE00000
FE000000
ENDCHAR
STARTCHAR asciitilde
ENCODING 126
SWIDTH 475 0
DWIDTH 36 0
BBX 30 8 3 19
BITMAP
0FF80018
1FFF003C
7FFFF1FC
FFFFFFFC
FFFFFFF8
FC1FFFF0
F003FFE0
C0007F80
ENDCHAR
STARTCHAR space.dup1
ENCODING 160
SWIDTH 475 0
DWIDTH 36 0
BBX 1 1 0 0
BITMAP
00
ENDCHAR
STARTCHAR exclamdown
ENCODING 161
SWIDTH 475 0
DWIDTH 36 0
BBX 1 1 0 0
BITMAP
00
ENDCHAR
STARTCHAR cent
ENCODING 162
SWIDTH 475 0
DWIDTH 36 0
BBX 1 1 0 0
BITMAP
00
ENDCHAR
STARTCHAR sterling
ENCODING 163
SWIDTH 475 0
DWIDTH 36 0
BBX 1 1 0 0
BITMAP
00
ENDCHAR
STARTCHAR currency
ENCODING 164
SWIDTH 475 0
DWIDTH 36 0
BBX 1 1 0 0
BITMAP
00
ENDCHAR
STARTCHAR yen
ENCODING 165
SWIDTH 475 0
DWIDTH 36 0
BBX 1 1 0 0
BITMAP
00
ENDCHAR
STARTCHAR brokenbar
ENCODING 166
SWIDTH 475 0
DWIDTH 36 0
BBX 1 1 0 0
BITMAP
00
ENDCHAR
STARTCHAR section
ENCODING 167
SWIDTH 475 0
DWIDTH 36 0
BBX 1 1 0 0
BITMAP
00
ENDCHAR
STARTCHAR dieresis
ENCODING 168
SWIDTH 475 0
DWIDTH 36 0
BBX 1 1 0 0
BITMAP
00
ENDCHAR
STARTCHAR copyright
ENCODING 169
SWIDTH 475 0
DWIDTH 36 0
BBX 34 44 1 3
BITMAP
0003F00000
001FFE0000
007FFF0000
00FFFFC000
01FF7FE000
03F007F000
07E001F800
0F8000F800
1F00C07C00
1E07FF3E00
3E1FFF1E00
3C3FFF0F00
383FFF0F00
787C1F0700
78F80F0780
70F0070780
F0F0070780
F1E0070380
F1E0030380
F1E00003C0
F1E00003C0
F1E00003C0
F1E00003C0
F1E00003C0
F1E00003C0
F1E0000380
F1E0000380
F0F0000780
78F0030780
78F8078780
787C0F8F00
3C7FFF0F00
3C3FFF1E00
3E1FFE1E00
1F0FF83E00
0F03E07C00
0FC000F800
07E001F800
03F807F000
01FFFFE000
00FFFFC000
007FFF0000
001FFC0000
0001C00000
ENDCHAR
STARTCHAR ordfeminine
ENCODING 170
SWIDTH 475 0
DWIDTH 36 0
BBX 1 1 0 0
BITMAP
00
ENDCHAR
STARTCHAR guillemotleft
ENCODING 171
SWIDTH 475 0
DWIDTH 36 0
BBX 1 1 0 0
BITMAP
00
ENDCHAR
STARTCHAR logicalnot
ENCODING 172
SWIDTH 475 0
DWIDTH 36 0
BBX 1 1 0 0
BITMAP
00
ENDCHAR
STARTCHAR hyphen.dup2
ENCODING 173
SWIDTH 475 0
DWIDTH 36 0
BBX 15 6 10 17
BITMAP
FFFE
FFFE
FFFE
FFFE
FFFE
FFFE
ENDCHAR
STARTCHAR registered
ENCODING 174
SWIDTH 475 0
DWIDTH 36 0
BBX 34 44 1 3
BITMAP
0003F00000
001FFE0000
007FFF0000
00FFFFC000
01FF7FE000
03F007F000
07E001F800
0F8000F800
1F00007C00
1E7FC03E00
3EFFF81E00
3CFFFC0F00
387FFE0F00
781C3E0700
781C1E0780
701C0E0780
F01C0F0780
F01C0E0380
F01C1E0380
F01C3E03C0
F01FFE03C0
F01FFC03C0
F01FF803C0
F01FF003C0
F01C7803C0
F01C780380
F01C3C0380
F01C3C0780
781C1E0780
781C1F0780
787F8FCF00
3CFF8FCF00
3CFF87DE00
3E7F039E00
1F00003E00
0F00007C00
0FC000F800
07E001F800
03F807F000
01FFFFE000
00FFFFC000
007FFF0000
001FFC0000
0001C00000
ENDCHAR
STARTCHAR macron
ENCODING 175
SWIDTH 475 0
DWIDTH 36 0
BBX 1 1 0 0
BITMAP
00
ENDCHAR
STARTCHAR degree
ENCODING 176
SWIDTH 475 0
DWIDTH 36 0
BBX 24 23 6 29
BITMAP
01FF00
07FFC0
0FFFF0
1FFFF8
3FFFF8
3F81FC
7E00FE
7C007E
FC003E
F8003E
F8003E
F8003F
F8003E
FC003E
FC003E
7E007E
7F00FC
3FC3FC
1FFFF8
1FFFF0
07FFE0
03FF80
00FE00
ENDCHAR
STARTCHAR plusminus
ENCODING 177
SWIDTH 475 0
DWIDTH 36 0
BBX 1 1 0 0
BITMAP
00
ENDCHAR
STARTCHAR uni00B2
ENCODING 178
SWIDTH 475 0
DWIDTH 36 0
BBX 1 1 0 0
BITMAP
00
ENDCHAR
STARTCHAR uni00B3
ENCODING 179
SWIDTH 475 0
DWIDTH 36 0
BBX 1 1 0 0
BITMAP
00
ENDCHAR
STARTCHAR acute
ENCODING 180
SWIDTH 475 0
DWIDTH 36 0
BBX 1 1 0 0
BITMAP
00
ENDCHAR
STARTCHAR mu
ENCODING 181
SWIDTH 475 0
DWIDTH 36 0
BBX 1 1 0 0
BITMAP
00
ENDCHAR
STARTCHAR paragraph
ENCODING 182
SWIDTH 475 0
DWIDTH 36 0
BBX 1 1 0 0
BITMAP
00
ENDCHAR
STARTCHAR periodcentered
ENCODING 183
SWIDTH 475 0
DWIDTH 36 0
BBX 1 1 0 0
BITMAP
00
ENDCHAR
STARTCHAR cedilla
ENCODING 184
SWIDTH 475 0
DWIDTH 36 0
BBX 1 1 0 0
BITMAP
00
ENDCHAR
STARTCHAR uni00B9
ENCODING 185
SWIDTH 475 0
DWIDTH 36 0
BBX 1 1 0 0
BITMAP
00
ENDCHAR
STARTCHAR ordmasculine
ENCODING 186
SWIDTH 475 0
DWIDTH 36 0
BBX 1 1 0 0
BITMAP
00
ENDCHAR
STARTCHAR guillemotright
ENCODING 187
SWIDTH 475 0
DWIDTH 36 0
BBX 1 1 0 0
BITMAP
00
ENDCHAR
STARTCHAR onequarter
ENCODING 188
SWIDTH 475 0
DWIDTH 36 0
BBX 1 1 0 0
BITMAP
00
ENDCHAR
STARTCHAR onehalf
ENCODING 189
SWIDTH 475 0
DWIDTH 36 0
BBX 1 1 0 0
BITMAP
00
ENDCHAR
STARTCHAR threequarters
ENCODING 190
SWIDTH 475 0
DWIDTH 36 0
BBX 1 1 0 0
BITMAP
00
ENDCHAR
STARTCHAR questiondown
ENCODING 191
SWIDTH 475 0
DWIDTH 36 0
BBX 1 1 0 0
BITMAP
00
ENDCHAR
STARTCHAR Agrave
ENCODING 192
SWIDTH 475 0
DWIDTH 36 0
BBX 1 1 0 0
BITMAP
00
ENDCHAR
STARTCHAR Aacute
ENCODING 193
SWIDTH 475 0
DWIDTH 36 0
BBX 1 1 0 0
BITMAP
00
ENDCHAR
STARTCHAR Acircumflex
ENCODING 194
SWIDTH 475 0
DWIDTH 36 0
BBX 1 1 0 0
BITMAP
00
ENDCHAR
STARTCHAR Atilde
ENCODING 195
SWIDTH 475 0
DWIDTH 36 0
BBX 1 1 0 0
BITMAP
00
ENDCHAR
STARTCHAR Adieresis
ENCODING 196
SWIDTH 475 0
DWIDTH 36 0
BBX 1 1 0 0
BITMAP
00
ENDCHAR
STARTCHAR Aring
ENCODING 197
SWIDTH 475 0
DWIDTH 36 0
BBX 1 1 0 0
BITMAP
00
ENDCHAR
STARTCHAR AE
ENCODING 198
SWIDTH 475 0
DWIDTH 36 0
BBX 1 1 0 0
BITMAP
00
ENDCHAR
STARTCHAR Ccedilla
ENCODING 199
SWIDTH 475 0
DWIDTH 36 0
BBX 1 1 0 0
BITMAP
00
ENDCHAR
STARTCHAR Egrave
ENCODING 200
SWIDTH 475 0
DWIDTH 36 0
BBX 1 1 0 0
BITMAP
00
ENDCHAR
STARTCHAR Eacute
ENCODING 201
SWIDTH 475 0
DWIDTH 36 0
BBX 1 1 0 0
BITMAP
00
ENDCHAR
STARTCHAR Ecircumflex
ENCODING 202
SWIDTH 475 0
DWIDTH 36 0
BBX 1 1 0 0
BITMAP
00
ENDCHAR
STARTCHAR Edieresis
ENCODING 203
SWIDTH 475 0
DWIDTH 36 0
BBX 1 1 0 0
BITMAP
00
ENDCHAR
STARTCHAR Igrave
ENCODING 204
SWIDTH 475 0
DWIDTH 36 0
BBX 1 1 0 0
BITMAP
00
ENDCHAR
STARTCHAR Iacute
ENCODING 205
SWIDTH 475 0
DWIDTH 36 0
BBX 1 1 0 0
BITMAP
00
ENDCHAR
STARTCHAR Icircumflex
ENCODING 206
SWIDTH 475 0
DWIDTH 36 0
BBX 1 1 0 0
BITMAP
00
ENDCHAR
STARTCHAR Idieresis
ENCODING 207
SWIDTH 475 0
DWIDTH 36 0
BBX 1 1 0 0
BITMAP
00
ENDCHAR
STARTCHAR Eth
ENCODING 208
SWIDTH 475 0
DWIDTH 36 0
BBX 1 1 0 0
BITMAP
00
ENDCHAR
STARTCHAR Ntilde
ENCODING 209
SWIDTH 475 0
DWIDTH 36 0
BBX 1 1 0 0
BITMAP
00
ENDCHAR
STARTCHAR Ograve
ENCODING 210
SWIDTH 475 0
DWIDTH 36 0
BBX 1 1 0 0
BITMAP
00
ENDCHAR
STARTCHAR Oacute
ENCODING 211
SWIDTH 475 0
DWIDTH 36 0
BBX 1 1 0 0
BITMAP
00
ENDCHAR
STARTCHAR Ocircumflex
ENCODING 212
SWIDTH 475 0
DWIDTH 36 0
BBX 1 1 0 0
BITMAP
00
ENDCHAR
STARTCHAR Otilde
ENCODING 213
SWIDTH 475 0
DWIDTH 36 0
BBX 1 1 0 0
BITMAP
00
ENDCHAR
STARTCHAR Odieresis
ENCODING 214
SWIDTH 475 0
DWIDTH 36 0
BBX 1 1 0 0
BITMAP
00
ENDCHAR
STARTCHAR multiply
ENCODING 215
SWIDTH 475 0
DWIDTH 36 0
BBX 1 1 0 0
BITMAP
00
ENDCHAR
STARTCHAR Oslash
ENCODING 216
SWIDTH 475 0
DWIDTH 36 0
BBX 1 1 0 0
BITMAP
00
ENDCHAR
STARTCHAR Ugrave
ENCODING 217
SWIDTH 475 0
DWIDTH 36 0
BBX 1 1 0 0
BITMAP
00
ENDCHAR
STARTCHAR Uacute
ENCODING 218
SWIDTH 475 0
DWIDTH 36 0
BBX 1 1 0 0
BITMAP
00
ENDCHAR
STARTCHAR Ucircumflex
ENCODING 219
SWIDTH 475 0
DWIDTH 36 0
BBX 1 1 0 0
BITMAP
00
ENDCHAR
STARTCHAR Udieresis
ENCODING 220
SWIDTH 475 0
DWIDTH 36 0
BBX 1 1 0 0
BITMAP
00
ENDCHAR
STARTCHAR Yacute
ENCODING 221
SWIDTH 475 0
DWIDTH 36 0
BBX 1 1 0 0
BITMAP
00
ENDCHAR
STARTCHAR Thorn
ENCODING 222
SWIDTH 475 0
DWIDTH 36 0
BBX 1 1 0 0
BITMAP
00
ENDCHAR
STARTCHAR germandbls
ENCODING 223
SWIDTH 475 0
DWIDTH 36 0
BBX 1 1 0 0
BITMAP
00
ENDCHAR
STARTCHAR agrave
ENCODING 224
SWIDTH 475 0
DWIDTH 36 0
BBX 1 1 0 0
BITMAP
00
ENDCHAR
STARTCHAR aacute
ENCODING 225
SWIDTH 475 0
DWIDTH 36 0
BBX 1 1 0 0
BITMAP
00
ENDCHAR
STARTCHAR acircumflex
ENCODING 226
SWIDTH 475 0
DWIDTH 36 0
BBX 1 1 0 0
BITMAP
00
ENDCHAR
STARTCHAR atilde
ENCODING 227
SWIDTH 475 0
DWIDTH 36 0
BBX 1 1 0 0
BITMAP
00
ENDCHAR
STARTCHAR adieresis
ENCODING 228
SWIDTH 475 0
DWIDTH 36 0
BBX 1 1 0 0
BITMAP
00
ENDCHAR
STARTCHAR aring
ENCODING 229
SWIDTH 475 0
DWIDTH 36 0
BBX 1 1 0 0
BITMAP
00
ENDCHAR
STARTCHAR ae
ENCODING 230
SWIDTH 475 0
DWIDTH 36 0
BBX 1 1 0 0
BITMAP
00
ENDCHAR
STARTCHAR ccedilla
ENCODING 231
SWIDTH 475 0
DWIDTH 36 0
BBX 1 1 0 0
BITMAP
00
ENDCHAR
STARTCHAR egrave
ENCODING 232
SWIDTH 475 0
DWIDTH 36 0
BBX 1 1 0 0
BITMAP
00
ENDCHAR
STARTCHAR eacute
ENCODING 233
SWIDTH 475 0
DWIDTH 36 0
BBX 1 1 0 0
BITMAP
00
ENDCHAR
STARTCHAR ecircumflex
ENCODING 234
SWIDTH 475 0
DWIDTH 36 0
BBX 1 1 0 0
BITMAP
00
ENDCHAR
STARTCHAR edieresis
ENCODING 235
SWIDTH 475 0
DWIDTH 36 0
BBX 1 1 0 0
BITMAP
00
ENDCHAR
STARTCHAR igrave
ENCODING 236
SWIDTH 475 0
DWIDTH 36 0
BBX 1 1 0 0
BITMAP
00
ENDCHAR
STARTCHAR iacute
ENCODING 237
SWIDTH 475 0
DWIDTH 36 0
BBX 1 1 0 0
BITMAP
00
ENDCHAR
STARTCHAR icircumflex
ENCODING 238
SWIDTH 475 0
DWIDTH 36 0
BBX 1 1 0 0
BITMAP
00
ENDCHAR
STARTCHAR idieresis
ENCODING 239
SWIDTH 475 0
DWIDTH 36 0
BBX 1 1 0 0
BITMAP
00
ENDCHAR
STARTCHAR eth
ENCODING 240
SWIDTH 475 0
DWIDTH 36 0
BBX 1 1 0 0
BITMAP
00
ENDCHAR
STARTCHAR ntilde
ENCODING 241
SWIDTH 475 0
DWIDTH 36 0
BBX 1 1 0 0
BITMAP
00
ENDCHAR
STARTCHAR ograve
ENCODING 242
SWIDTH 475 0
DWIDTH 36 0
BBX 1 1 0 0
BITMAP
00
ENDCHAR
STARTCHAR oacute
ENCODING 243
SWIDTH 475 0
DWIDTH 36 0
BBX 1 1 0 0
BITMAP
00
ENDCHAR
STARTCHAR ocircumflex
ENCODING 244
SWIDTH 475 0
DWIDTH 36 0
BBX 1 1 0 0
BITMAP
00
ENDCHAR
STARTCHAR otilde
ENCODING 245
SWIDTH 475 0
DWIDTH 36 0
BBX 1 1 0 0
BITMAP
00
ENDCHAR
STARTCHAR odieresis
ENCODING 246
SWIDTH 475 0
DWIDTH 36 0
BBX 1 1 0 0
BITMAP
00
ENDCHAR
STARTCHAR divide
ENCODING 247
SWIDTH 475 0
DWIDTH 36 0
BBX 1 1 0 0
BITMAP
00
ENDCHAR
STARTCHAR oslash
ENCODING 248
SWIDTH 475 0
DWIDTH 36 0
BBX 1 1 0 0
BITMAP
00
ENDCHAR
STARTCHAR ugrave
ENCODING 249
SWIDTH 475 0
DWIDTH 36 0
BBX 1 1 0 0
BITMAP
00
ENDCHAR
STARTCHAR uacute
ENCODING 250
SWIDTH 475 0
DWIDTH 36 0
BBX 1 1 0 0
BITMAP
00
ENDCHAR
STARTCHAR ucircumflex
ENCODING 251
SWIDTH 475 0
DWIDTH 36 0
BBX 1 1 0 0
BITMAP
00
ENDCHAR
STARTCHAR udieresis
ENCODING 252
SWIDTH 475 0
DWIDTH 36 0
BBX 1 1 0 0
BITMAP
00
ENDCHAR
STARTCHAR yacute
ENCODING 253
SWIDTH 475 0
DWIDTH 36 0
BBX 1 1 0 0
BITMAP
00
ENDCHAR
STARTCHAR thorn
ENCODING 254
SWIDTH 475 0
DWIDTH 36 0
BBX 1 1 0 0
BITMAP
00
ENDCHAR
STARTCHAR ydieresis
ENCODING 255
SWIDTH 475 0
DWIDTH 36 0
BBX 1 1 0 0
BITMAP
00
ENDCHAR
STARTCHAR Amacron
ENCODING 256
SWIDTH 475 0
DWIDTH 36 0
BBX 1 1 0 0
BITMAP
00
ENDCHAR
STARTCHAR amacron
ENCODING 257
SWIDTH 475 0
DWIDTH 36 0
BBX 1 1 0 0
BITMAP
00
ENDCHAR
STARTCHAR Abreve
ENCODING 258
SWIDTH 475 0
DWIDTH 36 0
BBX 1 1 0 0
BITMAP
00
ENDCHAR
STARTCHAR abreve
ENCODING 259
SWIDTH 475 0
DWIDTH 36 0
BBX 1 1 0 0
BITMAP
00
ENDCHAR
STARTCHAR Aogonek
ENCODING 260
SWIDTH 475 0
DWIDTH 36 0
BBX 1 1 0 0
BITMAP
00
ENDCHAR
STARTCHAR aogonek
ENCODING 261
SWIDTH 475 0
DWIDTH 36 0
BBX 1 1 0 0
BITMAP
00
ENDCHAR
STARTCHAR Cacute
ENCODING 262
SWIDTH 475 0
DWIDTH 36 0
BBX 1 1 0 0
BITMAP
00
ENDCHAR
STARTCHAR cacute
ENCODING 263
SWIDTH 475 0
DWIDTH 36 0
BBX 1 1 0 0
BITMAP
00
ENDCHAR
STARTCHAR Ccircumflex
ENCODING 264
SWIDTH 475 0
DWIDTH 36 0
BBX 1 1 0 0
BITMAP
00
ENDCHAR
STARTCHAR ccircumflex
ENCODING 265
SWIDTH 475 0
DWIDTH 36 0
BBX 1 1 0 0
BITMAP
00
ENDCHAR
STARTCHAR Cdotaccent
ENCODING 266
SWIDTH 475 0
DWIDTH 36 0
BBX 1 1 0 0
BITMAP
00
ENDCHAR
STARTCHAR cdotaccent
ENCODING 267
SWIDTH 475 0
DWIDTH 36 0
BBX 1 1 0 0
BITMAP
00
ENDCHAR
STARTCHAR Ccaron
ENCODING 268
SWIDTH 475 0
DWIDTH 36 0
BBX 1 1 0 0
BITMAP
00
ENDCHAR
STARTCHAR ccaron
ENCODING 269
SWIDTH 475 0
DWIDTH 36 0
BBX 1 1 0 0
BITMAP
00
ENDCHAR
STARTCHAR Dcaron
ENCODING 270
SWIDTH 475 0
DWIDTH 36 0
BBX 1 1 0 0
BITMAP
00
ENDCHAR
STARTCHAR dcaron
ENCODING 271
SWIDTH 475 0
DWIDTH 36 0
BBX 1 1 0 0
BITMAP
00
ENDCHAR
STARTCHAR Dcroat
ENCODING 272
SWIDTH 475 0
DWIDTH 36 0
BBX 1 1 0 0
BITMAP
00
ENDCHAR
STARTCHAR dcroat
ENCODING 273
SWIDTH 475 0
DWIDTH 36 0
BBX 1 1 0 0
BITMAP
00
ENDCHAR
STARTCHAR Emacron
ENCODING 274
SWIDTH 475 0
DWIDTH 36 0
BBX 1 1 0 0
BITMAP
00
ENDCHAR
STARTCHAR emacron
ENCODING 275
SWIDTH 475 0
DWIDTH 36 0
BBX 1 1 0 0
BITMAP
00
ENDCHAR
STARTCHAR Ebreve
ENCODING 276
SWIDTH 475 0
DWIDTH 36 0
BBX 1 1 0 0
BITMAP
00
ENDCHAR
STARTCHAR ebreve
ENCODING 277
SWIDTH 475 0
DWIDTH 36 0
BBX 1 1 0 0
BITMAP
00
ENDCHAR
STARTCHAR Edotaccent
ENCODING 278
SWIDTH 475 0
DWIDTH 36 0
BBX 1 1 0 0
BITMAP
00
ENDCHAR
STARTCHAR edotaccent
ENCODING 279
SWIDTH 475 0
DWIDTH 36 0
BBX 1 1 0 0
BITMAP
00
ENDCHAR
STARTCHAR Eogonek
ENCODING 280
SWIDTH 475 0
DWIDTH 36 0
BBX 1 1 0 0
BITMAP
00
ENDCHAR
STARTCHAR eogonek
ENCODING 281
SWIDTH 475 0
DWIDTH 36 0
BBX 1 1 0 0
BITMAP
00
ENDCHAR
STARTCHAR Ecaron
ENCODING 282
SWIDTH 475 0
DWIDTH 36 0
BBX 1 1 0 0
BITMAP
00
ENDCHAR
STARTCHAR ecaron
ENCODING 283
SWIDTH 475 0
DWIDTH 36 0
BBX 1 1 0 0
BITMAP
00
ENDCHAR
STARTCHAR Gcircumflex
ENCODING 284
SWIDTH 475 0
DWIDTH 36 0
BBX 1 1 0 0
BITMAP
00
ENDCHAR
STARTCHAR gcircumflex
ENCODING 285
SWIDTH 475 0
DWIDTH 36 0
BBX 1 1 0 0
BITMAP
00
ENDCHAR
STARTCHAR Gbreve
ENCODING 286
SWIDTH 475 0
DWIDTH 36 0
BBX 1 1 0 0
BITMAP
00
ENDCHAR
STARTCHAR gbreve
ENCODING 287
SWIDTH 475 0
DWIDTH 36 0
BBX 1 1 0 0
BITMAP
00
ENDCHAR
STARTCHAR Gdotaccent
ENCODING 288
SWIDTH 475 0
DWIDTH 36 0
BBX 1 1 0 0
BITMAP
00
ENDCHAR
STARTCHAR gdotaccent
ENCODING 289
SWIDTH 475 0
DWIDTH 36 0
BBX 1 1 0 0
BITMAP
00
ENDCHAR
STARTCHAR Gcommaaccent
ENCODING 290
SWIDTH 475 0
DWIDTH 36 0
BBX 1 1 0 0
BITMAP
00
ENDCHAR
STARTCHAR gcommaaccent
ENCODING 291
SWIDTH 475 0
DWIDTH 36 0
BBX 1 1 0 0
BITMAP
00
ENDCHAR
STARTCHAR Hcircumflex
ENCODING 292
SWIDTH 475 0
DWIDTH 36 0
BBX 1 1 0 0
BITMAP
00
ENDCHAR
STARTCHAR hcircumflex
ENCODING 293
SWIDTH 475 0
DWIDTH 36 0
BBX 1 1 0 0
BITMAP
00
ENDCHAR
STARTCHAR Hbar
ENCODING 294
SWIDTH 475 0
DWIDTH 36 0
BBX 1 1 0 0
BITMAP
00
ENDCHAR
STARTCHAR hbar
ENCODING 295
SWIDTH 475 0
DWIDTH 36 0
BBX 1 1 0 0
BITMAP
00
ENDCHAR
STARTCHAR Itilde
ENCODING 296
SWIDTH 475 0
DWIDTH 36 0
BBX 1 1 0 0
BITMAP
00
ENDCHAR
STARTCHAR itilde
ENCODING 297
SWIDTH 475 0
DWIDTH 36 0
BBX 1 1 0 0
BITMAP
00
ENDCHAR
STARTCHAR Imacron
ENCODING 298
SWIDTH 475 0
DWIDTH 36 0
BBX 1 1 0 0
BITMAP
00
ENDCHAR
STARTCHAR imacron
ENCODING 299
SWIDTH 475 0
DWIDTH 36 0
BBX 1 1 0 0
BITMAP
00
ENDCHAR
STARTCHAR Ibreve
ENCODING 300
SWIDTH 475 0
DWIDTH 36 0
BBX 1 1 0 0
BITMAP
00
ENDCHAR
STARTCHAR ibreve
ENCODING 301
SWIDTH 475 0
DWIDTH 36 0
BBX 1 1 0 0
BITMAP
00
ENDCHAR
STARTCHAR Iogonek
ENCODING 302
SWIDTH 475 0
DWIDTH 36 0
BBX 1 1 0 0
BITMAP
00
ENDCHAR
STARTCHAR iogonek
ENCODING 303
SWIDTH 475 0
DWIDTH 36 0
BBX 1 1 0 0
BITMAP
00
ENDCHAR
STARTCHAR Idotaccent
ENCODING 304
SWIDTH 475 0
DWIDTH 36 0
BBX 1 1 0 0
BITMAP
00
ENDCHAR
STARTCHAR dotlessi
ENCODING 305
SWIDTH 475 0
DWIDTH 36 0
BBX 1 1 0 0
BITMAP
00
ENDCHAR
STARTCHAR IJ
ENCODING 306
SWIDTH 475 0
DWIDTH 36 0
BBX 1 1 0 0
BITMAP
00
ENDCHAR
STARTCHAR ij
ENCODING 307
SWIDTH 475 0
DWIDTH 36 0
BBX 1 1 0 0
BITMAP
00
ENDCHAR
STARTCHAR Jcircumflex
ENCODING 308
SWIDTH 475 0
DWIDTH 36 0
BBX 1 1 0 0
BITMAP
00
ENDCHAR
STARTCHAR jcircumflex
ENCODING 309
SWIDTH 475 0
DWIDTH 36 0
BBX 1 1 0 0
BITMAP
00
ENDCHAR
STARTCHAR Kcommaaccent
ENCODING 310
SWIDTH 475 0
DWIDTH 36 0
BBX 1 1 0 0
BITMAP
00
ENDCHAR
STARTCHAR kcommaaccent
ENCODING 311
SWIDTH 475 0
DWIDTH 36 0
BBX 1 1 0 0
BITMAP
00
ENDCHAR
STARTCHAR kgreenlandic
ENCODING 312
SWIDTH 475 0
DWIDTH 36 0
BBX 1 1 0 0
BITMAP
00
ENDCHAR
STARTCHAR Lacute
ENCODING 313
SWIDTH 475 0
DWIDTH 36 0
BBX 1 1 0 0
BITMAP
00
ENDCHAR
STARTCHAR lacute
ENCODING 314
SWIDTH 475 0
DWIDTH 36 0
BBX 1 1 0 0
BITMAP
00
ENDCHAR
STARTCHAR Lcommaaccent
ENCODING 315
SWIDTH 475 0
DWIDTH 36 0
BBX 1 1 0 0
BITMAP
00
ENDCHAR
STARTCHAR lcommaaccent
ENCODING 316
SWIDTH 475 0
DWIDTH 36 0
BBX 1 1 0 0
BITMAP
00
ENDCHAR
STARTCHAR Lcaron
ENCODING 317
SWIDTH 475 0
DWIDTH 36 0
BBX 1 1 0 0
BITMAP
00
ENDCHAR
STARTCHAR lcaron
ENCODING 318
SWIDTH 475 0
DWIDTH 36 0
BBX 1 1 0 0
BITMAP
00
ENDCHAR
STARTCHAR Ldot
ENCODING 319
SWIDTH 475 0
DWIDTH 36 0
BBX 1 1 0 0
BITMAP
00
ENDCHAR
STARTCHAR ldot
ENCODING 320
SWIDTH 475 0
DWIDTH 36 0
BBX 1 1 0 0
BITMAP
00
ENDCHAR
STARTCHAR Lslash
ENCODING 321
SWIDTH 475 0
DWIDTH 36 0
BBX 1 1 0 0
BITMAP
00
ENDCHAR
STARTCHAR lslash
ENCODING 322
SWIDTH 475 0
DWIDTH 36 0
BBX 1 1 0 0
BITMAP
00
ENDCHAR
STARTCHAR Nacute
ENCODING 323
SWIDTH 475 0
DWIDTH 36 0
BBX 1 1 0 0
BITMAP
00
ENDCHAR
STARTCHAR nacute
ENCODING 324
SWIDTH 475 0
DWIDTH 36 0
BBX 1 1 0 0
BITMAP
00
ENDCHAR
STARTCHAR Ncommaaccent
ENCODING 325
SWIDTH 475 0
DWIDTH 36 0
BBX 1 1 0 0
BITMAP
00
ENDCHAR
STARTCHAR ncommaaccent
ENCODING 326
SWIDTH 475 0
DWIDTH 36 0
BBX 1 1 0 0
BITMAP
00
ENDCHAR
STARTCHAR Ncaron
ENCODING 327
SWIDTH 475 0
DWIDTH 36 0
BBX 1 1 0 0
BITMAP
00
ENDCHAR
STARTCHAR ncaron
ENCODING 328
SWIDTH 475 0
DWIDTH 36 0
BBX 1 1 0 0
BITMAP
00
ENDCHAR
STARTCHAR napostrophe
ENCODING 329
SWIDTH 475 0
DWIDTH 36 0
BBX 1 1 0 0
BITMAP
00
ENDCHAR
STARTCHAR Eng
ENCODING 330
SWIDTH 475 0
DWIDTH 36 0
BBX 1 1 0 0
BITMAP
00
ENDCHAR
STARTCHAR eng
ENCODING 331
SWIDTH 475 0
DWIDTH 36 0
BBX 1 1 0 0
BITMAP
00
ENDCHAR
STARTCHAR Omacron
ENCODING 332
SWIDTH 475 0
DWIDTH 36 0
BBX 1 1 0 0
BITMAP
00
ENDCHAR
STARTCHAR omacron
ENCODING 333
SWIDTH 475 0
DWIDTH 36 0
BBX 1 1 0 0
BITMAP
00
ENDCHAR
STARTCHAR Obreve
ENCODING 334
SWIDTH 475 0
DWIDTH 36 0
BBX 1 1 0 0
BITMAP
00
ENDCHAR
STARTCHAR obreve
ENCODING 335
SWIDTH 475 0
DWIDTH 36 0
BBX 1 1 0 0
BITMAP
00
ENDCHAR
STARTCHAR Ohungarumlaut
ENCODING 336
SWIDTH 475 0
DWIDTH 36 0
BBX 1 1 0 0
BITMAP
00
ENDCHAR
STARTCHAR ohungarumlaut
ENCODING 337
SWIDTH 475 0
DWIDTH 36 0
BBX 1 1 0 0
BITMAP
00
ENDCHAR
STARTCHAR OE
ENCODING 338
SWIDTH 475 0
DWIDTH 36 0
BBX 1 1 0 0
BITMAP
00
ENDCHAR
STARTCHAR oe
ENCODING 339
SWIDTH 475 0
DWIDTH 36 0
BBX 1 1 0 0
BITMAP
00
ENDCHAR
STARTCHAR Racute
ENCODING 340
SWIDTH 475 0
DWIDTH 36 0
BBX 1 1 0 0
BITMAP
00
ENDCHAR
STARTCHAR racute
ENCODING 341
SWIDTH 475 0
DWIDTH 36 0
BBX 1 1 0 0
BITMAP
00
ENDCHAR
STARTCHAR Rcommaaccent
ENCODING 342
SWIDTH 475 0
DWIDTH 36 0
BBX 1 1 0 0
BITMAP
00
ENDCHAR
STARTCHAR rcommaaccent
ENCODING 343
SWIDTH 475 0
DWIDTH 36 0
BBX 1 1 0 0
BITMAP
00
ENDCHAR
STARTCHAR Rcaron
ENCODING 344
SWIDTH 475 0
DWIDTH 36 0
BBX 1 1 0 0
BITMAP
00
ENDCHAR
STARTCHAR rcaron
ENCODING 345
SWIDTH 475 0
DWIDTH 36 0
BBX 1 1 0 0
BITMAP
00
ENDCHAR
STARTCHAR Sacute
ENCODING 346
SWIDTH 475 0
DWIDTH 36 0
BBX 1 1 0 0
BITMAP
00
ENDCHAR
STARTCHAR sacute
ENCODING 347
SWIDTH 475 0
DWIDTH 36 0
BBX 1 1 0 0
BITMAP
00
ENDCHAR
STARTCHAR Scircumflex
ENCODING 348
SWIDTH 475 0
DWIDTH 36 0
BBX 1 1 0 0
BITMAP
00
ENDCHAR
STARTCHAR scircumflex
ENCODING 349
SWIDTH 475 0
DWIDTH 36 0
BBX 1 1 0 0
BITMAP
00
ENDCHAR
STARTCHAR Scedilla
ENCODING 350
SWIDTH 475 0
DWIDTH 36 0
BBX 1 1 0 0
BITMAP
00
ENDCHAR
STARTCHAR scedilla
ENCODING 351
SWIDTH 475 0
DWIDTH 36 0
BBX 1 1 0 0
BITMAP
00
ENDCHAR
STARTCHAR Scaron
ENCODING 352
SWIDTH 475 0
DWIDTH 36 0
BBX 1 1 0 0
BITMAP
00
ENDCHAR
STARTCHAR scaron
ENCODING 353
SWIDTH 475 0
DWIDTH 36 0
BBX 1 1 0 0
BITMAP
00
ENDCHAR
STARTCHAR Tcommaaccent
ENCODING 354
SWIDTH 475 0
DWIDTH 36 0
BBX 1 1 0 0
BITMAP
00
ENDCHAR
STARTCHAR tcommaaccent
ENCODING 355
SWIDTH 475 0
DWIDTH 36 0
BBX 1 1 0 0
BITMAP
00
ENDCHAR
STARTCHAR Tcaron
ENCODING 356
SWIDTH 475 0
DWIDTH 36 0
BBX 1 1 0 0
BITMAP
00
ENDCHAR
STARTCHAR tcaron
ENCODING 357
SWIDTH 475 0
DWIDTH 36 0
BBX 1 1 0 0
BITMAP
00
ENDCHAR
STARTCHAR Tbar
ENCODING 358
SWIDTH 475 0
DWIDTH 36 0
BBX 1 1 0 0
BITMAP
00
ENDCHAR
STARTCHAR tbar
ENCODING 359
SWIDTH 475 0
DWIDTH 36 0
BBX 1 1 0 0
BITMAP
00
ENDCHAR
STARTCHAR Utilde
ENCODING 360
SWIDTH 475 0
DWIDTH 36 0
BBX 1 1 0 0
BITMAP
00
ENDCHAR
STARTCHAR utilde
ENCODING 361
SWIDTH 475 0
DWIDTH 36 0
BBX 1 1 0 0
BITMAP
00
ENDCHAR
STARTCHAR Umacron
ENCODING 362
SWIDTH 475 0
DWIDTH 36 0
BBX 1 1 0 0
BITMAP
00
ENDCHAR
STARTCHAR umacron
ENCODING 363
SWIDTH 475 0
DWIDTH 36 0
BBX 1 1 0 0
BITMAP
00
ENDCHAR
STARTCHAR Ubreve
ENCODING 364
SWIDTH 475 0
DWIDTH 36 0
BBX 1 1 0 0
BITMAP
00
ENDCHAR
STARTCHAR ubreve
ENCODING 365
SWIDTH 475 0
DWIDTH 36 0
BBX 1 1 0 0
BITMAP
00
ENDCHAR
STARTCHAR Uring
ENCODING 366
SWIDTH 475 0
DWIDTH 36 0
BBX 1 1 0 0
BITMAP
00
ENDCHAR
STARTCHAR uring
ENCODING 367
SWIDTH 475 0
DWIDTH 36 0
BBX 1 1 0 0
BITMAP
00
ENDCHAR
STARTCHAR Uhungarumlaut
ENCODING 368
SWIDTH 475 0
DWIDTH 36 0
BBX 1 1 0 0
BITMAP
00
ENDCHAR
STARTCHAR uhungarumlaut
ENCODING 369
SWIDTH 475 0
DWIDTH 36 0
BBX 1 1 0 0
BITMAP
00
ENDCHAR
STARTCHAR Uogonek
ENCODING 370
SWIDTH 475 0
DWIDTH 36 0
BBX 1 1 0 0
BITMAP
00
ENDCHAR
STARTCHAR uogonek
ENCODING 371
SWIDTH 475 0
DWIDTH 36 0
BBX 1 1 0 0
BITMAP
00
ENDCHAR
STARTCHAR Wcircumflex
ENCODING 372
SWIDTH 475 0
DWIDTH 36 0
BBX 1 1 0 0
BITMAP
00
ENDCHAR
STARTCHAR wcircumflex
ENCODING 373
SWIDTH 475 0
DWIDTH 36 0
BBX 1 1 0 0
BITMAP
00
ENDCHAR
STARTCHAR Ycircumflex
ENCODING 374
SWIDTH 475 0
DWIDTH 36 0
BBX 1 1 0 0
BITMAP
00
ENDCHAR
STARTCHAR ycircumflex
ENCODING 375
SWIDTH 475 0
DWIDTH 36 0
BBX 1 1 0 0
BITMAP
00
ENDCHAR
STARTCHAR Ydieresis
ENCODING 376
SWIDTH 475 0
DWIDTH 36 0
BBX 1 1 0 0
BITMAP
00
ENDCHAR
STARTCHAR Zacute
ENCODING 377
SWIDTH 475 0
DWIDTH 36 0
BBX 1 1 0 0
BITMAP
00
ENDCHAR
STARTCHAR zacute
ENCODING 378
SWIDTH 475 0
DWIDTH 36 0
BBX 1 1 0 0
BITMAP
00
ENDCHAR
STARTCHAR Zdotaccent
ENCODING 379
SWIDTH 475 0
DWIDTH 36 0
BBX 1 1 0 0
BITMAP
00
ENDCHAR
STARTCHAR zdotaccent
ENCODING 380
SWIDTH 475 0
DWIDTH 36 0
BBX 1 1 0 0
BITMAP
00
ENDCHAR
STARTCHAR Zcaron
ENCODING 381
SWIDTH 475 0
DWIDTH 36 0
BBX 1 1 0 0
BITMAP
00
ENDCHAR
STARTCHAR zcaron
ENCODING 382
SWIDTH 475 0
DWIDTH 36 0
BBX 1 1 0 0
BITMAP
00
ENDCHAR
STARTCHAR longs
ENCODING 383
SWIDTH 475 0
DWIDTH 36 0
BBX 1 1 0 0
BITMAP
00
ENDCHAR
STARTCHAR florin
ENCODING 402
SWIDTH 475 0
DWIDTH 36 0
BBX 1 1 0 0
BITMAP
00
ENDCHAR
STARTCHAR Aringacute
ENCODING 506
SWIDTH 475 0
DWIDTH 36 0
BBX 1 1 0 0
BITMAP
00
ENDCHAR
STARTCHAR aringacute
ENCODING 507
SWIDTH 475 0
DWIDTH 36 0
BBX 1 1 0 0
BITMAP
00
ENDCHAR
STARTCHAR AEacute
ENCODING 508
SWIDTH 475 0
DWIDTH 36 0
BBX 1 1 0 0
BITMAP
00
ENDCHAR
STARTCHAR aeacute
ENCODING 509
SWIDTH 475 0
DWIDTH 36 0
BBX 1 1 0 0
BITMAP
00
ENDCHAR
STARTCHAR Oslashacute
ENCODING 510
SWIDTH 475 0
DWIDTH 36 0
BBX 1 1 0 0
BITMAP
00
ENDCHAR
STARTCHAR oslashacute
ENCODING 511
SWIDTH 475 0
DWIDTH 36 0
BBX 1 1 0 0
BITMAP
00
ENDCHAR
STARTCHAR circumflex
ENCODING 710
SWIDTH 475 0
DWIDTH 36 0
BBX 1 1 0 0
BITMAP
00
ENDCHAR
STARTCHAR caron
ENCODING 711
SWIDTH 475 0
DWIDTH 36 0
BBX 1 1 0 0
BITMAP
00
ENDCHAR
STARTCHAR uni02C9
ENCODING 713
SWIDTH 475 0
DWIDTH 36 0
BBX 1 1 0 0
BITMAP
00
ENDCHAR
STARTCHAR breve
ENCODING 728
SWIDTH 475 0
DWIDTH 36 0
BBX 1 1 0 0
BITMAP
00
ENDCHAR
STARTCHAR dotaccent
ENCODING 729
SWIDTH 475 0
DWIDTH 36 0
BBX 1 1 0 0
BITMAP
00
ENDCHAR
STARTCHAR ring
ENCODING 730
SWIDTH 475 0
DWIDTH 36 0
BBX 1 1 0 0
BITMAP
00
ENDCHAR
STARTCHAR ogonek
ENCODING 731
SWIDTH 475 0
DWIDTH 36 0
BBX 1 1 0 0
BITMAP
00
ENDCHAR
STARTCHAR tilde
ENCODING 732
SWIDTH 475 0
DWIDTH 36 0
BBX 1 1 0 0
BITMAP
00
ENDCHAR
STARTCHAR hungarumlaut
ENCODING 733
SWIDTH 475 0
DWIDTH 36 0
BBX 1 1 0 0
BITMAP
00
ENDCHAR
STARTCHAR semicolon.dup3
ENCODING 894
SWIDTH 475 0
DWIDTH 36 0
BBX 9 49 13 -9
BITMAP
FF80
FF80
FF80
FF80
FF80
FF80
FF80
FF80
FF80
FF80
FF80
0000
0000
0000
0000
0000
0000
0000
0000
0000
0000
0000
0000
0000
0000
0000
FF80
FF80
FF80
FF80
FF80
FF80
FF80
FF80
FF80
FF80
FF80
FF80
0F80
0F80
0F80
0F80
1F80
7F80
7F80
7F80
7F00
7E00
7800
ENDCHAR
STARTCHAR tonos
ENCODING 900
SWIDTH 475 0
DWIDTH 36 0
BBX 1 1 0 0
BITMAP
00
ENDCHAR
STARTCHAR dieresistonos
ENCODING 901
SWIDTH 475 0
DWIDTH 36 0
BBX 1 1 0 0
BITMAP
00
ENDCHAR
STARTCHAR Alphatonos
ENCODING 902
SWIDTH 475 0
DWIDTH 36 0
BBX 1 1 0 0
BITMAP
00
ENDCHAR
STARTCHAR anoteleia
ENCODING 903
SWIDTH 475 0
DWIDTH 36 0
BBX 1 1 0 0
BITMAP
00
ENDCHAR
STARTCHAR Epsilontonos
ENCODING 904
SWIDTH 475 0
DWIDTH 36 0
BBX 1 1 0 0
BITMAP
00
ENDCHAR
STARTCHAR Etatonos
ENCODING 905
SWIDTH 475 0
DWIDTH 36 0
BBX 1 1 0 0
BITMAP
00
ENDCHAR
STARTCHAR Iotatonos
ENCODING 906
SWIDTH 475 0
DWIDTH 36 0
BBX 1 1 0 0
BITMAP
00
ENDCHAR
STARTCHAR Omicrontonos
ENCODING 908
SWIDTH 475 0
DWIDTH 36 0
BBX 1 1 0 0
BITMAP
00
ENDCHAR
STARTCHAR Upsilontonos
ENCODING 910
SWIDTH 475 0
DWIDTH 36 0
BBX 1 1 0 0
BITMAP
00
ENDCHAR
STARTCHAR Omegatonos
ENCODING 911
SWIDTH 475 0
DWIDTH 36 0
BBX 1 1 0 0
BITMAP
00
ENDCHAR
STARTCHAR iotadieresistonos
ENCODING 912
SWIDTH 475 0
DWIDTH 36 0
BBX 1 1 0 0
BITMAP
00
ENDCHAR
STARTCHAR Alpha
ENCODING 913
SWIDTH 475 0
DWIDTH 36 0
BBX 1 1 0 0
BITMAP
00
ENDCHAR
STARTCHAR Beta
ENCODING 914
SWIDTH 475 0
DWIDTH 36 0
BBX 1 1 0 0
BITMAP
00
ENDCHAR
STARTCHAR Gamma
ENCODING 915
SWIDTH 475 0
DWIDTH 36 0
BBX 1 1 0 0
BITMAP
00
ENDCHAR
STARTCHAR uni0394
ENCODING 916
SWIDTH 475 0
DWIDTH 36 0
BBX 1 1 0 0
BITMAP
00
ENDCHAR
STARTCHAR Epsilon
ENCODING 917
SWIDTH 475 0
DWIDTH 36 0
BBX 1 1 0 0
BITMAP
00
ENDCHAR
STARTCHAR Zeta
ENCODING 918
SWIDTH 475 0
DWIDTH 36 0
BBX 1 1 0 0
BITMAP
00
ENDCHAR
STARTCHAR Eta
ENCODING 919
SWIDTH 475 0
DWIDTH 36 0
BBX 1 1 0 0
BITMAP
00
ENDCHAR
STARTCHAR Theta
ENCODING 920
SWIDTH 475 0
DWIDTH 36 0
BBX 1 1 0 0
BITMAP
00
ENDCHAR
STARTCHAR Iota
ENCODING 921
SWIDTH 475 0
DWIDTH 36 0
BBX 1 1 0 0
BITMAP
00
ENDCHAR
STARTCHAR Kappa
ENCODING 922
SWIDTH 475 0
DWIDTH 36 0
BBX 1 1 0 0
BITMAP
00
ENDCHAR
STARTCHAR Lambda
ENCODING 923
SWIDTH 475 0
DWIDTH 36 0
BBX 1 1 0 0
BITMAP
00
ENDCHAR
STARTCHAR Mu
ENCODING 924
SWIDTH 475 0
DWIDTH 36 0
BBX 1 1 0 0
BITMAP
00
ENDCHAR
STARTCHAR Nu
ENCODING 925
SWIDTH 475 0
DWIDTH 36 0
BBX 1 1 0 0
BITMAP
00
ENDCHAR
STARTCHAR Xi
ENCODING 926
SWIDTH 475 0
DWIDTH 36 0
BBX 1 1 0 0
BITMAP
00
ENDCHAR
STARTCHAR Omicron
ENCODING 927
SWIDTH 475 0
DWIDTH 36 0
BBX 1 1 0 0
BITMAP
00
ENDCHAR
STARTCHAR Pi
ENCODING 928
SWIDTH 475 0
DWIDTH 36 0
BBX 1 1 0 0
BITMAP
00
ENDCHAR
STARTCHAR Rho
ENCODING 929
SWIDTH 475 0
DWIDTH 36 0
BBX 1 1 0 0
BITMAP
00
ENDCHAR
STARTCHAR Sigma
ENCODING 931
SWIDTH 475 0
DWIDTH 36 0
BBX 1 1 0 0
BITMAP
00
ENDCHAR
STARTCHAR Tau
ENCODING 932
SWIDTH 475 0
DWIDTH 36 0
BBX 1 1 0 0
BITMAP
00
ENDCHAR
STARTCHAR Upsilon
ENCODING 933
SWIDTH 475 0
DWIDTH 36 0
BBX 1 1 0 0
BITMAP
00
ENDCHAR
STARTCHAR Phi
ENCODING 934
SWIDTH 475 0
DWIDTH 36 0
BBX 1 1 0 0
BITMAP
00
ENDCHAR
STARTCHAR Chi
ENCODING 935
SWIDTH 475 0
DWIDTH 36 0
BBX 1 1 0 0
BITMAP
00
ENDCHAR
STARTCHAR Psi
ENCODING 936
SWIDTH 475 0
DWIDTH 36 0
BBX 1 1 0 0
BITMAP
00
ENDCHAR
STARTCHAR uni03A9
ENCODING 937
SWIDTH 475 0
DWIDTH 36 0
BBX 1 1 0 0
BITMAP
00
ENDCHAR
STARTCHAR Iotadieresis
ENCODING 938
SWIDTH 475 0
DWIDTH 36 0
BBX 1 1 0 0
BITMAP
00
ENDCHAR
STARTCHAR Upsilondieresis
ENCODING 939
SWIDTH 475 0
DWIDTH 36 0
BBX 1 1 0 0
BITMAP
00
ENDCHAR
STARTCHAR alphatonos
ENCODING 940
SWIDTH 475 0
DWIDTH 36 0
BBX 1 1 0 0
BITMAP
00
ENDCHAR
STARTCHAR epsilontonos
ENCODING 941
SWIDTH 475 0
DWIDTH 36 0
BBX 1 1 0 0
BITMAP
00
ENDCHAR
STARTCHAR etatonos
ENCODING 942
SWIDTH 475 0
DWIDTH 36 0
BBX 1 1 0 0
BITMAP
00
ENDCHAR
STARTCHAR iotatonos
ENCODING 943
SWIDTH 475 0
DWIDTH 36 0
BBX 1 1 0 0
BITMAP
00
ENDCHAR
STARTCHAR upsilondieresistonos
ENCODING 944
SWIDTH 475 0
DWIDTH 36 0
BBX 1 1 0 0
BITMAP
00
ENDCHAR
STARTCHAR alpha
ENCODING 945
SWIDTH 475 0
DWIDTH 36 0
BBX 1 1 0 0
BITMAP
00
ENDCHAR
STARTCHAR beta
ENCODING 946
SWIDTH 475 0
DWIDTH 36 0
BBX 1 1 0 0
BITMAP
00
ENDCHAR
STARTCHAR gamma
ENCODING 947
SWIDTH 475 0
DWIDTH 36 0
BBX 1 1 0 0
BITMAP
00
ENDCHAR
STARTCHAR delta
ENCODING 948
SWIDTH 475 0
DWIDTH 36 0
BBX 1 1 0 0
BITMAP
00
ENDCHAR
STARTCHAR epsilon
ENCODING 949
SWIDTH 475 0
DWIDTH 36 0
BBX 1 1 0 0
BITMAP
00
ENDCHAR
STARTCHAR zeta
ENCODING 950
SWIDTH 475 0
DWIDTH 36 0
BBX 1 1 0 0
BITMAP
00
ENDCHAR
STARTCHAR eta
ENCODING 951
SWIDTH 475 0
DWIDTH 36 0
BBX 1 1 0 0
BITMAP
00
ENDCHAR
STARTCHAR theta
ENCODING 952
SWIDTH 475 0
DWIDTH 36 0
BBX 1 1 0 0
BITMAP
00
ENDCHAR
STARTCHAR iota
ENCODING 953
SWIDTH 475 0
DWIDTH 36 0
BBX 1 1 0 0
BITMAP
00
ENDCHAR
STARTCHAR kappa
ENCODING 954
SWIDTH 475 0
DWIDTH 36 0
BBX 1 1 0 0
BITMAP
00
ENDCHAR
STARTCHAR lambda
ENCODING 955
SWIDTH 475 0
DWIDTH 36 0
BBX 1 1 0 0
BITMAP
00
ENDCHAR
STARTCHAR uni03BC
ENCODING 956
SWIDTH 475 0
DWIDTH 36 0
BBX 1 1 0 0
BITMAP
00
ENDCHAR
STARTCHAR nu
ENCODING 957
SWIDTH 475 0
DWIDTH 36 0
BBX 1 1 0 0
BITMAP
00
ENDCHAR
STARTCHAR xi
ENCODING 958
SWIDTH 475 0
DWIDTH 36 0
BBX 1 1 0 0
BITMAP
00
ENDCHAR
STARTCHAR omicron
ENCODING 959
SWIDTH 475 0
DWIDTH 36 0
BBX 1 1 0 0
BITMAP
00
ENDCHAR
STARTCHAR pi
ENCODING 960
SWIDTH 475 0
DWIDTH 36 0
BBX 1 1 0 0
BITMAP
00
ENDCHAR
STARTCHAR rho
ENCODING 961
SWIDTH 475 0
DWIDTH 36 0
BBX 1 1 0 0
BITMAP
00
ENDCHAR
STARTCHAR sigma1
ENCODING 962
SWIDTH 475 0
DWIDTH 36 0
BBX 1 1 0 0
BITMAP
00
ENDCHAR
STARTCHAR sigma
ENCODING 963
SWIDTH 475 0
DWIDTH 36 0
BBX 1 1 0 0
BITMAP
00
ENDCHAR
STARTCHAR tau
ENCODING 964
SWIDTH 475 0
DWIDTH 36 0
BBX 1 1 0 0
BITMAP
00
ENDCHAR
STARTCHAR upsilon
ENCODING 965
SWIDTH 475 0
DWIDTH 36 0
BBX 1 1 0 0
BITMAP
00
ENDCHAR
STARTCHAR phi
ENCODING 966
SWIDTH 475 0
DWIDTH 36 0
BBX 1 1 0 0
BITMAP
00
ENDCHAR
STARTCHAR chi
ENCODING 967
SWIDTH 475 0
DWIDTH 36 0
BBX 1 1 0 0
BITMAP
00
ENDCHAR
STARTCHAR psi
ENCODING 968
SWIDTH 475 0
DWIDTH 36 0
BBX 1 1 0 0
BITMAP
00
ENDCHAR
STARTCHAR omega
ENCODING 969
SWIDTH 475 0
DWIDTH 36 0
BBX 1 1 0 0
BITMAP
00
ENDCHAR
STARTCHAR iotadieresis
ENCODING 970
SWIDTH 475 0
DWIDTH 36 0
BBX 1 1 0 0
BITMAP
00
ENDCHAR
STARTCHAR upsilondieresis
ENCODING 971
SWIDTH 475 0
DWIDTH 36 0
BBX 1 1 0 0
BITMAP
00
ENDCHAR
STARTCHAR omicrontonos
ENCODING 972
SWIDTH 475 0
DWIDTH 36 0
BBX 1 1 0 0
BITMAP
00
ENDCHAR
STARTCHAR upsilontonos
ENCODING 973
SWIDTH 475 0
DWIDTH 36 0
BBX 1 1 0 0
BITMAP
00
ENDCHAR
STARTCHAR omegatonos
ENCODING 974
SWIDTH 475 0
DWIDTH 36 0
BBX 1 1 0 0
BITMAP
00
ENDCHAR
STARTCHAR afii10023
ENCODING 1025
SWIDTH 475 0
DWIDTH 36 0
BBX 1 1 0 0
BITMAP
00
ENDCHAR
STARTCHAR afii10051
ENCODING 1026
SWIDTH 475 0
DWIDTH 36 0
BBX 1 1 0 0
BITMAP
00
ENDCHAR
STARTCHAR afii10052
ENCODING 1027
SWIDTH 475 0
DWIDTH 36 0
BBX 1 1 0 0
BITMAP
00
ENDCHAR
STARTCHAR afii10053
ENCODING 1028
SWIDTH 475 0
DWIDTH 36 0
BBX 1 1 0 0
BITMAP
00
ENDCHAR
STARTCHAR afii10054
ENCODING 1029
SWIDTH 475 0
DWIDTH 36 0
BBX 1 1 0 0
BITMAP
00
ENDCHAR
STARTCHAR afii10055
ENCODING 1030
SWIDTH 475 0
DWIDTH 36 0
BBX 1 1 0 0
BITMAP
00
ENDCHAR
STARTCHAR afii10056
ENCODING 1031
SWIDTH 475 0
DWIDTH 36 0
BBX 1 1 0 0
BITMAP
00
ENDCHAR
STARTCHAR afii10057
ENCODING 1032
SWIDTH 475 0
DWIDTH 36 0
BBX 1 1 0 0
BITMAP
00
ENDCHAR
STARTCHAR afii10058
ENCODING 1033
SWIDTH 475 0
DWIDTH 36 0
BBX 1 1 0 0
BITMAP
00
ENDCHAR
STARTCHAR afii10059
ENCODING 1034
SWIDTH 475 0
DWIDTH 36 0
BBX 1 1 0 0
BITMAP
00
ENDCHAR
STARTCHAR afii10060
ENCODING 1035
SWIDTH 475 0
DWIDTH 36 0
BBX 1 1 0 0
BITMAP
00
ENDCHAR
STARTCHAR afii10061
ENCODING 1036
SWIDTH 475 0
DWIDTH 36 0
BBX 1 1 0 0
BITMAP
00
ENDCHAR
STARTCHAR afii10062
ENCODING 1038
SWIDTH 475 0
DWIDTH 36 0
BBX 1 1 0 0
BITMAP
00
ENDCHAR
STARTCHAR afii10145
ENCODING 1039
SWIDTH 475 0
DWIDTH 36 0
BBX 1 1 0 0
BITMAP
00
ENDCHAR
STARTCHAR afii10017
ENCODING 1040
SWIDTH 475 0
DWIDTH 36 0
BBX 1 1 0 0
BITMAP
00
ENDCHAR
STARTCHAR afii10018
ENCODING 1041
SWIDTH 475 0
DWIDTH 36 0
BBX 1 1 0 0
BITMAP
00
ENDCHAR
STARTCHAR afii10019
ENCODING 1042
SWIDTH 475 0
DWIDTH 36 0
BBX 1 1 0 0
BITMAP
00
ENDCHAR
STARTCHAR afii10020
ENCODING 1043
SWIDTH 475 0
DWIDTH 36 0
BBX 1 1 0 0
BITMAP
00
ENDCHAR
STARTCHAR afii10021
ENCODING 1044
SWIDTH 475 0
DWIDTH 36 0
BBX 1 1 0 0
BITMAP
00
ENDCHAR
STARTCHAR afii10022
ENCODING 1045
SWIDTH 475 0
DWIDTH 36 0
BBX 1 1 0 0
BITMAP
00
ENDCHAR
STARTCHAR afii10024
ENCODING 1046
SWIDTH 475 0
DWIDTH 36 0
BBX 1 1 0 0
BITMAP
00
ENDCHAR
STARTCHAR afii10025
ENCODING 1047
SWIDTH 475 0
DWIDTH 36 0
BBX 1 1 0 0
BITMAP
00
ENDCHAR
STARTCHAR afii10026
ENCODING 1048
SWIDTH 475 0
DWIDTH 36 0
BBX 1 1 0 0
BITMAP
00
ENDCHAR
STARTCHAR afii10027
ENCODING 1049
SWIDTH 475 0
DWIDTH 36 0
BBX 1 1 0 0
BITMAP
00
ENDCHAR
STARTCHAR afii10028
ENCODING 1050
SWIDTH 475 0
DWIDTH 36 0
BBX 1 1 0 0
BITMAP
00
ENDCHAR
STARTCHAR afii10029
ENCODING 1051
SWIDTH 475 0
DWIDTH 36 0
BBX 1 1 0 0
BITMAP
00
ENDCHAR
STARTCHAR afii10030
ENCODING 1052
SWIDTH 475 0
DWIDTH 36 0
BBX 1 1 0 0
BITMAP
00
ENDCHAR
STARTCHAR afii10031
ENCODING 1053
SWIDTH 475 0
DWIDTH 36 0
BBX 1 1 0 0
BITMAP
00
ENDCHAR
STARTCHAR afii10032
ENCODING 1054
SWIDTH 475 0
DWIDTH 36 0
BBX 1 1 0 0
BITMAP
00
ENDCHAR
STARTCHAR afii10033
ENCODING 1055
SWIDTH 475 0
DWIDTH 36 0
BBX 1 1 0 0
BITMAP
00
ENDCHAR
STARTCHAR afii10034
ENCODING 1056
SWIDTH 475 0
DWIDTH 36 0
BBX 1 1 0 0
BITMAP
00
ENDCHAR
STARTCHAR afii10035
ENCODING 1057
SWIDTH 475 0
DWIDTH 36 0
BBX 1 1 0 0
BITMAP
00
ENDCHAR
STARTCHAR afii10036
ENCODING 1058
SWIDTH 475 0
DWIDTH 36 0
BBX 1 1 0 0
BITMAP
00
ENDCHAR
STARTCHAR afii10037
ENCODING 1059
SWIDTH 475 0
DWIDTH 36 0
BBX 1 1 0 0
BITMAP
00
ENDCHAR
STARTCHAR afii10038
ENCODING 1060
SWIDTH 475 0
DWIDTH 36 0
BBX 1 1 0 0
BITMAP
00
ENDCHAR
STARTCHAR afii10039
ENCODING 1061
SWIDTH 475 0
DWIDTH 36 0
BBX 1 1 0 0
BITMAP
00
ENDCHAR
STARTCHAR afii10040
ENCODING 1062
SWIDTH 475 0
DWIDTH 36 0
BBX 1 1 0 0
BITMAP
00
ENDCHAR
STARTCHAR afii10041
ENCODING 1063
SWIDTH 475 0
DWIDTH 36 0
BBX 1 1 0 0
BITMAP
00
ENDCHAR
STARTCHAR afii10042
ENCODING 1064
SWIDTH 475 0
DWIDTH 36 0
BBX 1 1 0 0
BITMAP
00
ENDCHAR
STARTCHAR afii10043
ENCODING 1065
SWIDTH 475 0
DWIDTH 36 0
BBX 1 1 0 0
BITMAP
00
ENDCHAR
STARTCHAR afii10044
ENCODING 1066
SWIDTH 475 0
DWIDTH 36 0
BBX 1 1 0 0
BITMAP
00
ENDCHAR
STARTCHAR afii10045
ENCODING 1067
SWIDTH 475 0
DWIDTH 36 0
BBX 1 1 0 0
BITMAP
00
ENDCHAR
STARTCHAR afii10046
ENCODING 1068
SWIDTH 475 0
DWIDTH 36 0
BBX 1 1 0 0
BITMAP
00
ENDCHAR
STARTCHAR afii10047
ENCODING 1069
SWIDTH 475 0
DWIDTH 36 0
BBX 1 1 0 0
BITMAP
00
ENDCHAR
STARTCHAR afii10048
ENCODING 1070
SWIDTH 475 0
DWIDTH 36 0
BBX 1 1 0 0
BITMAP
00
ENDCHAR
STARTCHAR afii10049
ENCODING 1071
SWIDTH 475 0
DWIDTH 36 0
BBX 1 1 0 0
BITMAP
00
ENDCHAR
STARTCHAR afii10065
ENCODING 1072
SWIDTH 475 0
DWIDTH 36 0
BBX 1 1 0 0
BITMAP
00
ENDCHAR
STARTCHAR afii10066
ENCODING 1073
SWIDTH 475 0
DWIDTH 36 0
BBX 1 1 0 0
BITMAP
00
ENDCHAR
STARTCHAR afii10067
ENCODING 1074
SWIDTH 475 0
DWIDTH 36 0
BBX 1 1 0 0
BITMAP
00
ENDCHAR
STARTCHAR afii10068
ENCODING 1075
SWIDTH 475 0
DWIDTH 36 0
BBX 1 1 0 0
BITMAP
00
ENDCHAR
STARTCHAR afii10069
ENCODING 1076
SWIDTH 475 0
DWIDTH 36 0
BBX 1 1 0 0
BITMAP
00
ENDCHAR
STARTCHAR afii10070
ENCODING 1077
SWIDTH 475 0
DWIDTH 36 0
BBX 1 1 0 0
BITMAP
00
ENDCHAR
STARTCHAR afii10072
ENCODING 1078
SWIDTH 475 0
DWIDTH 36 0
BBX 1 1 0 0
BITMAP
00
ENDCHAR
STARTCHAR afii10073
ENCODING 1079
SWIDTH 475 0
DWIDTH 36 0
BBX 1 1 0 0
BITMAP
00
ENDCHAR
STARTCHAR afii10074
ENCODING 1080
SWIDTH 475 0
DWIDTH 36 0
BBX 1 1 0 0
BITMAP
00
ENDCHAR
STARTCHAR afii10075
ENCODING 1081
SWIDTH 475 0
DWIDTH 36 0
BBX 1 1 0 0
BITMAP
00
ENDCHAR
STARTCHAR afii10076
ENCODING 1082
SWIDTH 475 0
DWIDTH 36 0
BBX 1 1 0 0
BITMAP
00
ENDCHAR
STARTCHAR afii10077
ENCODING 1083
SWIDTH 475 0
DWIDTH 36 0
BBX 1 1 0 0
BITMAP
00
ENDCHAR
STARTCHAR afii10078
ENCODING 1084
SWIDTH 475 0
DWIDTH 36 0
BBX 1 1 0 0
BITMAP
00
ENDCHAR
STARTCHAR afii10079
ENCODING 1085
SWIDTH 475 0
DWIDTH 36 0
BBX 1 1 0 0
BITMAP
00
ENDCHAR
STARTCHAR afii10080
ENCODING 1086
SWIDTH 475 0
DWIDTH 36 0
BBX 1 1 0 0
BITMAP
00
ENDCHAR
STARTCHAR afii10081
ENCODING 1087
SWIDTH 475 0
DWIDTH 36 0
BBX 1 1 0 0
BITMAP
00
ENDCHAR
STARTCHAR afii10082
ENCODING 1088
SWIDTH 475 0
DWIDTH 36 0
BBX 1 1 0 0
BITMAP
00
ENDCHAR
STARTCHAR afii10083
ENCODING 1089
SWIDTH 475 0
DWIDTH 36 0
BBX 1 1 0 0
BITMAP
00
ENDCHAR
STARTCHAR afii10084
ENCODING 1090
SWIDTH 475 0
DWIDTH 36 0
BBX 1 1 0 0
BITMAP
00
ENDCHAR
STARTCHAR afii10085
ENCODING 1091
SWIDTH 475 0
DWIDTH 36 0
BBX 1 1 0 0
BITMAP
00
ENDCHAR
STARTCHAR afii10086
ENCODING 1092
SWIDTH 475 0
DWIDTH 36 0
BBX 1 1 0 0
BITMAP
00
ENDCHAR
STARTCHAR afii10087
ENCODING 1093
SWIDTH 475 0
DWIDTH 36 0
BBX 1 1 0 0
BITMAP
00
ENDCHAR
STARTCHAR afii10088
ENCODING 1094
SWIDTH 475 0
DWIDTH 36 0
BBX 1 1 0 0
BITMAP
00
ENDCHAR
STARTCHAR afii10089
ENCODING 1095
SWIDTH 475 0
DWIDTH 36 0
BBX 1 1 0 0
BITMAP
00
ENDCHAR
STARTCHAR afii10090
ENCODING 1096
SWIDTH 475 0
DWIDTH 36 0
BBX 1 1 0 0
BITMAP
00
ENDCHAR
STARTCHAR afii10091
ENCODING 1097
SWIDTH 475 0
DWIDTH 36 0
BBX 1 1 0 0
BITMAP
00
ENDCHAR
STARTCHAR afii10092
ENCODING 1098
SWIDTH 475 0
DWIDTH 36 0
BBX 1 1 0 0
BITMAP
00
ENDCHAR
STARTCHAR afii10093
ENCODING 1099
SWIDTH 475 0
DWIDTH 36 0
BBX 1 1 0 0
BITMAP
00
ENDCHAR
STARTCHAR afii10094
ENCODING 1100
SWIDTH 475 0
DWIDTH 36 0
BBX 1 1 0 0
BITMAP
00
ENDCHAR
STARTCHAR afii10095
ENCODING 1101
SWIDTH 475 0
DWIDTH 36 0
BBX 1 1 0 0
BITMAP
00
ENDCHAR
STARTCHAR afii10096
ENCODING 1102
SWIDTH 475 0
DWIDTH 36 0
BBX 1 1 0 0
BITMAP
00
ENDCHAR
STARTCHAR afii10097
ENCODING 1103
SWIDTH 475 0
DWIDTH 36 0
BBX 1 1 0 0
BITMAP
00
ENDCHAR
STARTCHAR afii10071
ENCODING 1105
SWIDTH 475 0
DWIDTH 36 0
BBX 1 1 0 0
BITMAP
00
ENDCHAR
STARTCHAR afii10099
ENCODING 1106
SWIDTH 475 0
DWIDTH 36 0
BBX 1 1 0 0
BITMAP
00
ENDCHAR
STARTCHAR afii10100
ENCODING 1107
SWIDTH 475 0
DWIDTH 36 0
BBX 1 1 0 0
BITMAP
00
ENDCHAR
STARTCHAR afii10101
ENCODING 1108
SWIDTH 475 0
DWIDTH 36 0
BBX 1 1 0 0
BITMAP
00
ENDCHAR
STARTCHAR afii10102
ENCODING 1109
SWIDTH 475 0
DWIDTH 36 0
BBX 1 1 0 0
BITMAP
00
ENDCHAR
STARTCHAR afii10103
ENCODING 1110
SWIDTH 475 0
DWIDTH 36 0
BBX 1 1 0 0
BITMAP
00
ENDCHAR
STARTCHAR afii10104
ENCODING 1111
SWIDTH 475 0
DWIDTH 36 0
BBX 1 1 0 0
BITMAP
00
ENDCHAR
STARTCHAR afii10105
ENCODING 1112
SWIDTH 475 0
DWIDTH 36 0
BBX 1 1 0 0
BITMAP
00
ENDCHAR
STARTCHAR afii10106
ENCODING 1113
SWIDTH 475 0
DWIDTH 36 0
BBX 1 1 0 0
BITMAP
00
ENDCHAR
STARTCHAR afii10107
ENCODING 1114
SWIDTH 475 0
DWIDTH 36 0
BBX 1 1 0 0
BITMAP
00
ENDCHAR
STARTCHAR afii10108
ENCODING 1115
SWIDTH 475 0
DWIDTH 36 0
BBX 1 1 0 0
BITMAP
00
ENDCHAR
STARTCHAR afii10109
ENCODING 1116
SWIDTH 475 0
DWIDTH 36 0
BBX 1 1 0 0
BITMAP
00
ENDCHAR
STARTCHAR afii10110
ENCODING 1118
SWIDTH 475 0
DWIDTH 36 0
BBX 1 1 0 0
BITMAP
00
ENDCHAR
STARTCHAR afii10193
ENCODING 1119
SWIDTH 475 0
DWIDTH 36 0
BBX 1 1 0 0
BITMAP
00
ENDCHAR
STARTCHAR afii10050
ENCODING 1168
SWIDTH 475 0
DWIDTH 36 0
BBX 1 1 0 0
BITMAP
00
ENDCHAR
STARTCHAR afii10098
ENCODING 1169
SWIDTH 475 0
DWIDTH 36 0
BBX 1 1 0 0
BITMAP
00
ENDCHAR
STARTCHAR Wgrave
ENCODING 7808
SWIDTH 475 0
DWIDTH 36 0
BBX 1 1 0 0
BITMAP
00
ENDCHAR
STARTCHAR wgrave
ENCODING 7809
SWIDTH 475 0
DWIDTH 36 0
BBX 1 1 0 0
BITMAP
00
ENDCHAR
STARTCHAR Wacute
ENCODING 7810
SWIDTH 475 0
DWIDTH 36 0
BBX 1 1 0 0
BITMAP
00
ENDCHAR
STARTCHAR wacute
ENCODING 7811
SWIDTH 475 0
DWIDTH 36 0
BBX 1 1 0 0
BITMAP
00
ENDCHAR
STARTCHAR Wdieresis
ENCODING 7812
SWIDTH 475 0
DWIDTH 36 0
BBX 1 1 0 0
BITMAP
00
ENDCHAR
STARTCHAR wdieresis
ENCODING 7813
SWIDTH 475 0
DWIDTH 36 0
BBX 1 1 0 0
BITMAP
00
ENDCHAR
STARTCHAR Ygrave
ENCODING 7922
SWIDTH 475 0
DWIDTH 36 0
BBX 1 1 0 0
BITMAP
00
ENDCHAR
STARTCHAR ygrave
ENCODING 7923
SWIDTH 475 0
DWIDTH 36 0
BBX 1 1 0 0
BITMAP
00
ENDCHAR
STARTCHAR endash
ENCODING 8211
SWIDTH 475 0
DWIDTH 36 0
BBX 1 1 0 0
BITMAP
00
ENDCHAR
STARTCHAR emdash
ENCODING 8212
SWIDTH 475 0
DWIDTH 36 0
BBX 1 1 0 0
BITMAP
00
ENDCHAR
STARTCHAR afii00208
ENCODING 8213
SWIDTH 475 0
DWIDTH 36 0
BBX 1 1 0 0
BITMAP
00
ENDCHAR
STARTCHAR underscoredbl
ENCODING 8215
SWIDTH 475 0
DWIDTH 36 0
BBX 1 1 0 0
BITMAP
00
ENDCHAR
STARTCHAR quoteleft
ENCODING 8216
SWIDTH 475 0
DWIDTH 36 0
BBX 10 22 12 30
BITMAP
07C0
1FC0
3FC0
3FC0
7FC0
7C00
7C00
7800
7800
F800
F800
F800
FF00
FF00
FF00
FF00
FF00
FF00
FF00
FF00
FF00
FF00
ENDCHAR
STARTCHAR quoteright
ENCODING 8217
SWIDTH 475 0
DWIDTH 36 0
BBX 10 22 12 30
BITMAP
1FC0
1FC0
1FC0
1FC0
1FC0
1FC0
1FC0
1FC0
1FC0
1FC0
03C0
03C0
03C0
03C0
07C0
07C0
0FC0
FFC0
FF80
FF80
FE00
F800
ENDCHAR
STARTCHAR quotesinglbase
ENCODING 8218
SWIDTH 475 0
DWIDTH 36 0
BBX 1 1 0 0
BITMAP
00
ENDCHAR
STARTCHAR quotereversed
ENCODING 8219
SWIDTH 475 0
DWIDTH 36 0
BBX 1 1 0 0
BITMAP
00
ENDCHAR
STARTCHAR quotedblleft
ENCODING 8220
SWIDTH 475 0
DWIDTH 36 0
BBX 26 22 4 30
BITMAP
07C007C0
1FC01FC0
3FC03FC0
7FC07FC0
7FC07FC0
7C007C00
F800F800
F800F800
F800F800
F800F800
F800F800
F800F800
FF00FF00
FF00FF00
FF00FF00
FF00FF00
FF00FF00
FF00FF00
FF00FF00
FF00FF00
FF00FF00
FF00FF00
ENDCHAR
STARTCHAR quotedblright
ENCODING 8221
SWIDTH 475 0
DWIDTH 36 0
BBX 26 22 4 30
BITMAP
3FC03FC0
3FC03FC0
3FC03FC0
3FC03FC0
3FC03FC0
3FC03FC0
3FC03FC0
3FC03FC0
3FC03FC0
3FC03FC0
07C007C0
07C007C0
07C007C0
07C007C0
07C007C0
07C007C0
0F800FC0
FF80FF80
FF80FF80
FF00FF00
FE00FE00
F000F000
ENDCHAR
STARTCHAR quotedblbase
ENCODING 8222
SWIDTH 475 0
DWIDTH 36 0
BBX 1 1 0 0
BITMAP
00
ENDCHAR
STARTCHAR dagger
ENCODING 8224
SWIDTH 475 0
DWIDTH 36 0
BBX 1 1 0 0
BITMAP
00
ENDCHAR
STARTCHAR daggerdbl
ENCODING 8225
SWIDTH 475 0
DWIDTH 36 0
BBX 1 1 0 0
BITMAP
00
ENDCHAR
STARTCHAR bullet
ENCODING 8226
SWIDTH 475 0
DWIDTH 36 0
BBX 12 12 12 19
BITMAP
1F00
3FC0
7FE0
FFE0
FFE0
FFF0
FFF0
FFE0
FFE0
7FC0
3F80
0E00
ENDCHAR
STARTCHAR ellipsis
ENCODING 8230
SWIDTH 475 0
DWIDTH 36 0
BBX 1 1 0 0
BITMAP
00
ENDCHAR
STARTCHAR perthousand
ENCODING 8240
SWIDTH 475 0
DWIDTH 36 0
BBX 1 1 0 0
BITMAP
00
ENDCHAR
STARTCHAR minute
ENCODING 8242
SWIDTH 475 0
DWIDTH 36 0
BBX 1 1 0 0
BITMAP
00
ENDCHAR
STARTCHAR second
ENCODING 8243
SWIDTH 475 0
DWIDTH 36 0
BBX 1 1 0 0
BITMAP
00
ENDCHAR
STARTCHAR guilsinglleft
ENCODING 8249
SWIDTH 475 0
DWIDTH 36 0
BBX 1 1 0 0
BITMAP
00
ENDCHAR
STARTCHAR guilsinglright
ENCODING 8250
SWIDTH 475 0
DWIDTH 36 0
BBX 1 1 0 0
BITMAP
00
ENDCHAR
STARTCHAR exclamdbl
ENCODING 8252
SWIDTH 475 0
DWIDTH 36 0
BBX 1 1 0 0
BITMAP
00
ENDCHAR
STARTCHAR uni203E
ENCODING 8254
SWIDTH 475 0
DWIDTH 36 0
BBX 1 1 0 0
BITMAP
00
ENDCHAR
STARTCHAR fraction
ENCODING 8260
SWIDTH 475 0
DWIDTH 36 0
BBX 1 1 0 0
BITMAP
00
ENDCHAR
STARTCHAR uni207F
ENCODING 8319
SWIDTH 475 0
DWIDTH 36 0
BBX 1 1 0 0
BITMAP
00
ENDCHAR
STARTCHAR franc
ENCODING 8355
SWIDTH 475 0
DWIDTH 36 0
BBX 1 1 0 0
BITMAP
00
ENDCHAR
STARTCHAR lira
ENCODING 8356
SWIDTH 475 0
DWIDTH 36 0
BBX 1 1 0 0
BITMAP
00
ENDCHAR
STARTCHAR peseta
ENCODING 8359
SWIDTH 475 0
DWIDTH 36 0
BBX 1 1 0 0
BITMAP
00
ENDCHAR
STARTCHAR Euro
ENCODING 8364
SWIDTH 475 0
DWIDTH 36 0
BBX 1 1 0 0
BITMAP
00
ENDCHAR
STARTCHAR afii61248
ENCODING 8453
SWIDTH 475 0
DWIDTH 36 0
BBX 1 1 0 0
BITMAP
00
ENDCHAR
STARTCHAR afii61289
ENCODING 8467
SWIDTH 475 0
DWIDTH 36 0
BBX 1 1 0 0
BITMAP
00
ENDCHAR
STARTCHAR afii61352
ENCODING 8470
SWIDTH 475 0
DWIDTH 36 0
BBX 1 1 0 0
BITMAP
00
ENDCHAR
STARTCHAR trademark
ENCODING 8482
SWIDTH 475 0
DWIDTH 36 0
BBX 34 21 1 25
BITMAP
FFFE7C1F80
FFFE7E1F80
FFFE7E1F80
FFFE3E3F00
F38E3F3E00
F38E3F3E00
F38E3F3700
E38E3F7700
E38E3BF700
638E3BF700
03803BF700
03803BE700
038039E700
038039E700
038038C700
0380380700
0380380700
3FF8FE3F80
3FF8FF3FC0
3FF8FF3F80
1FF07E1F80
ENDCHAR
STARTCHAR Omega
ENCODING 8486
SWIDTH 475 0
DWIDTH 36 0
BBX 1 1 0 0
BITMAP
00
ENDCHAR
STARTCHAR estimated
ENCODING 8494
SWIDTH 475 0
DWIDTH 36 0
BBX 1 1 0 0
BITMAP
00
ENDCHAR
STARTCHAR oneeighth
ENCODING 8539
SWIDTH 475 0
DWIDTH 36 0
BBX 1 1 0 0
BITMAP
00
ENDCHAR
STARTCHAR threeeighths
ENCODING 8540
SWIDTH 475 0
DWIDTH 36 0
BBX 1 1 0 0
BITMAP
00
ENDCHAR
STARTCHAR fiveeighths
ENCODING 8541
SWIDTH 475 0
DWIDTH 36 0
BBX 1 1 0 0
BITMAP
00
ENDCHAR
STARTCHAR seveneighths
ENCODING 8542
SWIDTH 475 0
DWIDTH 36 0
BBX 1 1 0 0
BITMAP
00
ENDCHAR
STARTCHAR arrowleft
ENCODING 8592
SWIDTH 475 0
DWIDTH 36 0
BBX 1 1 0 0
BITMAP
00
ENDCHAR
STARTCHAR arrowup
ENCODING 8593
SWIDTH 475 0
DWIDTH 36 0
BBX 1 1 0 0
BITMAP
00
ENDCHAR
STARTCHAR arrowright
ENCODING 8594
SWIDTH 475 0
DWIDTH 36 0
BBX 1 1 0 0
BITMAP
00
ENDCHAR
STARTCHAR arrowdown
ENCODING 8595
SWIDTH 475 0
DWIDTH 36 0
BBX 1 1 0 0
BITMAP
00
ENDCHAR
STARTCHAR arrowboth
ENCODING 8596
SWIDTH 475 0
DWIDTH 36 0
BBX 1 1 0 0
BITMAP
00
ENDCHAR
STARTCHAR arrowupdn
ENCODING 8597
SWIDTH 475 0
DWIDTH 36 0
BBX 1 1 0 0
BITMAP
00
ENDCHAR
STARTCHAR arrowupdnbse
ENCODING 8616
SWIDTH 475 0
DWIDTH 36 0
BBX 1 1 0 0
BITMAP
00
ENDCHAR
STARTCHAR partialdiff
ENCODING 8706
SWIDTH 475 0
DWIDTH 36 0
BBX 1 1 0 0
BITMAP
00
ENDCHAR
STARTCHAR Delta
ENCODING 8710
SWIDTH 475 0
DWIDTH 36 0
BBX 1 1 0 0
BITMAP
00
ENDCHAR
STARTCHAR product
ENCODING 8719
SWIDTH 475 0
DWIDTH 36 0
BBX 1 1 0 0
BITMAP
00
ENDCHAR
STARTCHAR summation
ENCODING 8721
SWIDTH 475 0
DWIDTH 36 0
BBX 1 1 0 0
BITMAP
00
ENDCHAR
STARTCHAR minus
ENCODING 8722
SWIDTH 475 0
DWIDTH 36 0
BBX 1 1 0 0
BITMAP
00
ENDCHAR
STARTCHAR fraction.dup4
ENCODING 8725
SWIDTH 475 0
DWIDTH 36 0
BBX 1 1 0 0
BITMAP
00
ENDCHAR
STARTCHAR periodcentered.dup5
ENCODING 8729
SWIDTH 475 0
DWIDTH 36 0
BBX 1 1 0 0
BITMAP
00
ENDCHAR
STARTCHAR radical
ENCODING 8730
SWIDTH 475 0
DWIDTH 36 0
BBX 1 1 0 0
BITMAP
00
ENDCHAR
STARTCHAR infinity
ENCODING 8734
SWIDTH 475 0
DWIDTH 36 0
BBX 1 1 0 0
BITMAP
00
ENDCHAR
STARTCHAR orthogonal
ENCODING 8735
SWIDTH 475 0
DWIDTH 36 0
BBX 1 1 0 0
BITMAP
00
ENDCHAR
STARTCHAR intersection
ENCODING 8745
SWIDTH 475 0
DWIDTH 36 0
BBX 1 1 0 0
BITMAP
00
ENDCHAR
STARTCHAR integral
ENCODING 8747
SWIDTH 475 0
DWIDTH 36 0
BBX 1 1 0 0
BITMAP
00
ENDCHAR
STARTCHAR approxequal
ENCODING 8776
SWIDTH 475 0
DWIDTH 36 0
BBX 1 1 0 0
BITMAP
00
ENDCHAR
STARTCHAR notequal
ENCODING 8800
SWIDTH 475 0
DWIDTH 36 0
BBX 1 1 0 0
BITMAP
00
ENDCHAR
STARTCHAR equivalence
ENCODING 8801
SWIDTH 475 0
DWIDTH 36 0
BBX 1 1 0 0
BITMAP
00
ENDCHAR
STARTCHAR lessequal
ENCODING 8804
SWIDTH 475 0
DWIDTH 36 0
BBX 1 1 0 0
BITMAP
00
ENDCHAR
STARTCHAR greaterequal
ENCODING 8805
SWIDTH 475 0
DWIDTH 36 0
BBX 1 1 0 0
BITMAP
00
ENDCHAR
STARTCHAR house
ENCODING 8962
SWIDTH 475 0
DWIDTH 36 0
BBX 1 1 0 0
BITMAP
00
ENDCHAR
STARTCHAR revlogicalnot
ENCODING 8976
SWIDTH 475 0
DWIDTH 36 0
BBX 1 1 0 0
BITMAP
00
ENDCHAR
STARTCHAR integraltp
ENCODING 8992
SWIDTH 475 0
DWIDTH 36 0
BBX 1 1 0 0
BITMAP
00
ENDCHAR
STARTCHAR integralbt
ENCODING 8993
SWIDTH 475 0
DWIDTH 36 0
BBX 1 1 0 0
BITMAP
00
ENDCHAR
STARTCHAR SF100000
ENCODING 9472
SWIDTH 475 0
DWIDTH 36 0
BBX 1 1 0 0
BITMAP
00
ENDCHAR
STARTCHAR SF110000
ENCODING 9474
SWIDTH 475 0
DWIDTH 36 0
BBX 1 1 0 0
BITMAP
00
ENDCHAR
STARTCHAR SF010000
ENCODING 9484
SWIDTH 475 0
DWIDTH 36 0
BBX 1 1 0 0
BITMAP
00
ENDCHAR
STARTCHAR SF030000
ENCODING 9488
SWIDTH 475 0
DWIDTH 36 0
BBX 1 1 0 0
BITMAP
00
ENDCHAR
STARTCHAR SF020000
ENCODING 9492
SWIDTH 475 0
DWIDTH 36 0
BBX 1 1 0 0
BITMAP
00
ENDCHAR
STARTCHAR SF040000
ENCODING 9496
SWIDTH 475 0
DWIDTH 36 0
BBX 1 1 0 0
BITMAP
00
ENDCHAR
STARTCHAR SF080000
ENCODING 9500
SWIDTH 475 0
DWIDTH 36 0
BBX 1 1 0 0
BITMAP
00
ENDCHAR
STARTCHAR SF090000
ENCODING 9508
SWIDTH 475 0
DWIDTH 36 0
BBX 1 1 0 0
BITMAP
00
ENDCHAR
STARTCHAR SF060000
ENCODING 9516
SWIDTH 475 0
DWIDTH 36 0
BBX 1 1 0 0
BITMAP
00
ENDCHAR
STARTCHAR SF070000
ENCODING 9524
SWIDTH 475 0
DWIDTH 36 0
BBX 1 1 0 0
BITMAP
00
ENDCHAR
STARTCHAR SF050000
ENCODING 9532
SWIDTH 475 0
DWIDTH 36 0
BBX 1 1 0 0
BITMAP
00
ENDCHAR
STARTCHAR SF430000
ENCODING 9552
SWIDTH 475 0
DWIDTH 36 0
BBX 1 1 0 0
BITMAP
00
ENDCHAR
STARTCHAR SF240000
ENCODING 9553
SWIDTH 475 0
DWIDTH 36 0
BBX 1 1 0 0
BITMAP
00
ENDCHAR
STARTCHAR SF510000
ENCODING 9554
SWIDTH 475 0
DWIDTH 36 0
BBX 1 1 0 0
BITMAP
00
ENDCHAR
STARTCHAR SF520000
ENCODING 9555
SWIDTH 475 0
DWIDTH 36 0
BBX 1 1 0 0
BITMAP
00
ENDCHAR
STARTCHAR SF390000
ENCODING 9556
SWIDTH 475 0
DWIDTH 36 0
BBX 1 1 0 0
BITMAP
00
ENDCHAR
STARTCHAR SF220000
ENCODING 9557
SWIDTH 475 0
DWIDTH 36 0
BBX 1 1 0 0
BITMAP
00
ENDCHAR
STARTCHAR SF210000
ENCODING 9558
SWIDTH 475 0
DWIDTH 36 0
BBX 1 1 0 0
BITMAP
00
ENDCHAR
STARTCHAR SF250000
ENCODING 9559
SWIDTH 475 0
DWIDTH 36 0
BBX 1 1 0 0
BITMAP
00
ENDCHAR
STARTCHAR SF500000
ENCODING 9560
SWIDTH 475 0
DWIDTH 36 0
BBX 1 1 0 0
BITMAP
00
ENDCHAR
STARTCHAR SF490000
ENCODING 9561
SWIDTH 475 0
DWIDTH 36 0
BBX 1 1 0 0
BITMAP
00
ENDCHAR
STARTCHAR SF380000
ENCODING 9562
SWIDTH 475 0
DWIDTH 36 0
BBX 1 1 0 0
BITMAP
00
ENDCHAR
STARTCHAR SF280000
ENCODING 9563
SWIDTH 475 0
DWIDTH 36 0
BBX 1 1 0 0
BITMAP
00
ENDCHAR
STARTCHAR SF270000
ENCODING 9564
SWIDTH 475 0
DWIDTH 36 0
BBX 1 1 0 0
BITMAP
00
ENDCHAR
STARTCHAR SF260000
ENCODING 9565
SWIDTH 475 0
DWIDTH 36 0
BBX 1 1 0 0
BITMAP
00
ENDCHAR
STARTCHAR SF360000
ENCODING 9566
SWIDTH 475 0
DWIDTH 36 0
BBX 1 1 0 0
BITMAP
00
ENDCHAR
STARTCHAR SF370000
ENCODING 9567
SWIDTH 475 0
DWIDTH 36 0
BBX 1 1 0 0
BITMAP
00
ENDCHAR
STARTCHAR SF420000
ENCODING 9568
SWIDTH 475 0
DWIDTH 36 0
BBX 1 1 0 0
BITMAP
00
ENDCHAR
STARTCHAR SF190000
ENCODING 9569
SWIDTH 475 0
DWIDTH 36 0
BBX 1 1 0 0
BITMAP
00
ENDCHAR
STARTCHAR SF200000
ENCODING 9570
SWIDTH 475 0
DWIDTH 36 0
BBX 1 1 0 0
BITMAP
00
ENDCHAR
STARTCHAR SF230000
ENCODING 9571
SWIDTH 475 0
DWIDTH 36 0
BBX 1 1 0 0
BITMAP
00
ENDCHAR
STARTCHAR SF470000
ENCODING 9572
SWIDTH 475 0
DWIDTH 36 0
BBX 1 1 0 0
BITMAP
00
ENDCHAR
STARTCHAR SF480000
ENCODING 9573
SWIDTH 475 0
DWIDTH 36 0
BBX 1 1 0 0
BITMAP
00
ENDCHAR
STARTCHAR SF410000
ENCODING 9574
SWIDTH 475 0
DWIDTH 36 0
BBX 1 1 0 0
BITMAP
00
ENDCHAR
STARTCHAR SF450000
ENCODING 9575
SWIDTH 475 0
DWIDTH 36 0
BBX 1 1 0 0
BITMAP
00
ENDCHAR
STARTCHAR SF460000
ENCODING 9576
SWIDTH 475 0
DWIDTH 36 0
BBX 1 1 0 0
BITMAP
00
ENDCHAR
STARTCHAR SF400000
ENCODING 9577
SWIDTH 475 0
DWIDTH 36 0
BBX 1 1 0 0
BITMAP
00
ENDCHAR
STARTCHAR SF540000
ENCODING 9578
SWIDTH 475 0
DWIDTH 36 0
BBX 1 1 0 0
BITMAP
00
ENDCHAR
STARTCHAR SF530000
ENCODING 9579
SWIDTH 475 0
DWIDTH 36 0
BBX 1 1 0 0
BITMAP
00
ENDCHAR
STARTCHAR SF440000
ENCODING 9580
SWIDTH 475 0
DWIDTH 36 0
BBX 1 1 0 0
BITMAP
00
ENDCHAR
STARTCHAR upblock
ENCODING 9600
SWIDTH 475 0
DWIDTH 36 0
BBX 1 1 0 0
BITMAP
00
ENDCHAR
STARTCHAR dnblock
ENCODING 9604
SWIDTH 475 0
DWIDTH 36 0
BBX 1 1 0 0
BITMAP
00
ENDCHAR
STARTCHAR block
ENCODING 9608
SWIDTH 475 0
DWIDTH 36 0
BBX 1 1 0 0
BITMAP
00
ENDCHAR
STARTCHAR lfblock
ENCODING 9612
SWIDTH 475 0
DWIDTH 36 0
BBX 1 1 0 0
BITMAP
00
ENDCHAR
STARTCHAR rtblock
ENCODING 9616
SWIDTH 475 0
DWIDTH 36 0
BBX 1 1 0 0
BITMAP
00
ENDCHAR
STARTCHAR ltshade
ENCODING 9617
SWIDTH 475 0
DWIDTH 36 0
BBX 1 1 0 0
BITMAP
00
ENDCHAR
STARTCHAR shade
ENCODING 9618
SWIDTH 475 0
DWIDTH 36 0
BBX 1 1 0 0
BITMAP
00
ENDCHAR
STARTCHAR dkshade
ENCODING 9619
SWIDTH 475 0
DWIDTH 36 0
BBX 1 1 0 0
BITMAP
00
ENDCHAR
STARTCHAR filledbox
ENCODING 9632
SWIDTH 475 0
DWIDTH 36 0
BBX 1 1 0 0
BITMAP
00
ENDCHAR
STARTCHAR H22073
ENCODING 9633
SWIDTH 475 0
DWIDTH 36 0
BBX 1 1 0 0
BITMAP
00
ENDCHAR
STARTCHAR H18543
ENCODING 9642
SWIDTH 475 0
DWIDTH 36 0
BBX 1 1 0 0
BITMAP
00
ENDCHAR
STARTCHAR H18551
ENCODING 9643
SWIDTH 475 0
DWIDTH 36 0
BBX 1 1 0 0
BITMAP
00
ENDCHAR
STARTCHAR filledrect
ENCODING 9644
SWIDTH 475 0
DWIDTH 36 0
BBX 1 1 0 0
BITMAP
00
ENDCHAR
STARTCHAR triagup
ENCODING 9650
SWIDTH 475 0
DWIDTH 36 0
BBX 1 1 0 0
BITMAP
00
ENDCHAR
STARTCHAR triagrt
ENCODING 9658
SWIDTH 475 0
DWIDTH 36 0
BBX 1 1 0 0
BITMAP
00
ENDCHAR
STARTCHAR triagdn
ENCODING 9660
SWIDTH 475 0
DWIDTH 36 0
BBX 1 1 0 0
BITMAP
00
ENDCHAR
STARTCHAR triaglf
ENCODING 9668
SWIDTH 475 0
DWIDTH 36 0
BBX 1 1 0 0
BITMAP
00
ENDCHAR
STARTCHAR lozenge
ENCODING 9674
SWIDTH 475 0
DWIDTH 36 0
BBX 1 1 0 0
BITMAP
00
ENDCHAR
STARTCHAR circle
ENCODING 9675
SWIDTH 475 0
DWIDTH 36 0
BBX 1 1 0 0
BITMAP
00
ENDCHAR
STARTCHAR H18533
ENCODING 9679
SWIDTH 475 0
DWIDTH 36 0
BBX 1 1 0 0
BITMAP
00
ENDCHAR
STARTCHAR invbullet
ENCODING 9688
SWIDTH 475 0
DWIDTH 36 0
BBX 1 1 0 0
BITMAP
00
ENDCHAR
STARTCHAR invcircle
ENCODING 9689
SWIDTH 475 0
DWIDTH 36 0
BBX 1 1 0 0
BITMAP
00
ENDCHAR
STARTCHAR openbullet
ENCODING 9702
SWIDTH 475 0
DWIDTH 36 0
BBX 1 1 0 0
BITMAP
00
ENDCHAR
STARTCHAR smileface
ENCODING 9786
SWIDTH 475 0
DWIDTH 36 0
BBX 1 1 0 0
BITMAP
00
ENDCHAR
STARTCHAR invsmileface
ENCODING 9787
SWIDTH 475 0
DWIDTH 36 0
BBX 1 1 0 0
BITMAP
00
ENDCHAR
STARTCHAR sun
ENCODING 9788
SWIDTH 475 0
DWIDTH 36 0
BBX 1 1 0 0
BITMAP
00
ENDCHAR
STARTCHAR female
ENCODING 9792
SWIDTH 475 0
DWIDTH 36 0
BBX 1 1 0 0
BITMAP
00
ENDCHAR
STARTCHAR male
ENCODING 9794
SWIDTH 475 0
DWIDTH 36 0
BBX 1 1 0 0
BITMAP
00
ENDCHAR
STARTCHAR spade
ENCODING 9824
SWIDTH 475 0
DWIDTH 36 0
BBX 1 1 0 0
BITMAP
00
ENDCHAR
STARTCHAR club
ENCODING 9827
SWIDTH 475 0
DWIDTH 36 0
BBX 1 1 0 0
BITMAP
00
ENDCHAR
STARTCHAR heart
ENCODING 9829
SWIDTH 475 0
DWIDTH 36 0
BBX 1 1 0 0
BITMAP
00
ENDCHAR
STARTCHAR diamond
ENCODING 9830
SWIDTH 475 0
DWIDTH 36 0
BBX 1 1 0 0
BITMAP
00
ENDCHAR
STARTCHAR musicalnote
ENCODING 9834
SWIDTH 475 0
DWIDTH 36 0
BBX 1 1 0 0
BITMAP
00
ENDCHAR
STARTCHAR musicalnotedbl
ENCODING 9835
SWIDTH 475 0
DWIDTH 36 0
BBX 1 1 0 0
BITMAP
00
ENDCHAR
STARTCHAR uniF001
ENCODING 61441
SWIDTH 475 0
DWIDTH 36 0
BBX 1 1 0 0
BITMAP
00
ENDCHAR
STARTCHAR uniF002
ENCODING 61442
SWIDTH 475 0
DWIDTH 36 0
BBX 1 1 0 0
BITMAP
00
ENDCHAR
STARTCHAR uniF004
ENCODING 61444
SWIDTH 475 0
DWIDTH 36 0
BBX 1 1 0 0
BITMAP
00
ENDCHAR
STARTCHAR uniF005
ENCODING 61445
SWIDTH 475 0
DWIDTH 36 0
BBX 1 1 0 0
BITMAP
00
ENDCHAR
STARTCHAR uniF001.dup6
ENCODING 64257
SWIDTH 475 0
DWIDTH 36 0
BBX 1 1 0 0
BITMAP
00
ENDCHAR
STARTCHAR uniF002.dup7
ENCODING 64258
SWIDTH 475 0
DWIDTH 36 0
BBX 1 1 0 0
BITMAP
00
ENDCHAR
STARTCHAR .notdef
ENCODING -1
SWIDTH 475 0
DWIDTH 36 0
BBX 38 47 -1 0
BITMAP
FFFFFFFFFC
800000000C
800000000C
800000000C
800000000C
800000000C
800000000C
800000000C
800000000C
800000000C
800000000C
800000000C
800000000C
800000000C
800000000C
800000000C
800000000C
800000000C
800000000C
800000000C
800000000C
800000000C
800000000C
800000000C
800000000C
800000000C
800000000C
800000000C
800000000C
800000000C
800000000C
800000000C
800000000C
800000000C
800000000C
800000000C
800000000C
800000000C
800000000C
800000000C
800000000C
800000000C
800000000C
800000000C
800000000C
800000000C
FFFFFFFFFC
ENDCHAR
STARTCHAR .null
ENCODING -1
SWIDTH 0 0
DWIDTH 0 0
BBX 1 1 0 0
BITMAP
00
ENDCHAR
STARTCHAR nonmarkingreturn
ENCODING -1
SWIDTH 475 0
DWIDTH 36 0
BBX 1 1 0 0
BITMAP
00
ENDCHAR
STARTCHAR glyph155
ENCODING -1
SWIDTH 475 0
DWIDTH 36 0
BBX 1 1 0 0
BITMAP
00
ENDCHAR
ENDFONT
